<svg width="22" height="21" viewBox="0 0 22 21" fill="none" xmlns="http://www.w3.org/2000/svg">
<path d="M16.416 1.62412C16.7607 1.39435 16.8538 0.928701 16.624 0.584055C16.3943 0.239408 15.9286 0.146278 15.584 0.376042L12.6687 2.31955C12.1527 2.11343 11.5897 2.00006 11.0001 2.00006C10.4105 2.00006 9.84741 2.11345 9.33139 2.31962L6.41603 0.376042C6.07138 0.146278 5.60573 0.239408 5.37596 0.584055C5.1462 0.928701 5.23933 1.39435 5.58397 1.62412L7.9437 3.19727C7.24831 3.84109 6.75664 4.70181 6.57617 5.6719C7.01128 5.55973 7.46749 5.50006 7.93763 5.50006H14.0626C14.5328 5.50006 14.989 5.55973 15.4241 5.6719C15.2436 4.70176 14.7519 3.841 14.0564 3.19717L16.416 1.62412Z" fill="#525961"/>
<path d="M0.25 13.0001C0.25 12.5859 0.585786 12.2501 1 12.2501H4V10.9376C4 10.1019 4.26034 9.32699 4.70435 8.68959L2.22141 7.69624C1.83684 7.54238 1.6498 7.10589 1.80366 6.72131C1.95752 6.33673 2.39401 6.1497 2.77859 6.30356L5.91514 7.55841C6.50624 7.20388 7.19807 7.00006 7.9375 7.00006H14.0625C14.8019 7.00006 15.4938 7.20388 16.0849 7.55841L19.2214 6.30356C19.606 6.1497 20.0425 6.33673 20.1963 6.72131C20.3502 7.10589 20.1632 7.54238 19.7786 7.69624L17.2957 8.68959C17.7397 9.32699 18 10.1019 18 10.9376V12.2501H21C21.4142 12.2501 21.75 12.5859 21.75 13.0001C21.75 13.4143 21.4142 13.7501 21 13.7501H18V14.0001C18 15.1808 17.7077 16.2932 17.1915 17.2689L19.7786 18.3039C20.1632 18.4578 20.3502 18.8943 20.1963 19.2789C20.0425 19.6634 19.606 19.8505 19.2214 19.6966L16.3288 18.5394C15.1974 19.8664 13.5789 20.7655 11.75 20.9604V14.0001C11.75 13.5858 11.4142 13.2501 11 13.2501C10.5858 13.2501 10.25 13.5858 10.25 14.0001V20.9604C8.42109 20.7655 6.80265 19.8664 5.67115 18.5394L2.77859 19.6966C2.39401 19.8505 1.95752 19.6634 1.80366 19.2789C1.6498 18.8943 1.83684 18.4578 2.22141 18.3039L4.80852 17.2689C4.29231 16.2932 4 15.1808 4 14.0001V13.7501H1C0.585786 13.7501 0.25 13.4143 0.25 13.0001Z" fill="#525961"/>
</svg>
