<svg width="20" height="18" viewBox="0 0 20 18" fill="none" xmlns="http://www.w3.org/2000/svg">
<path d="M7.94955 13.0503C8.88061 12.1192 9.34613 11.6537 9.92091 11.6234C9.97347 11.6206 10.0261 11.6206 10.0787 11.6234C10.6535 11.6537 11.119 12.1192 12.0501 13.0503C14.0759 15.0761 15.0888 16.089 14.8053 16.963C14.7809 17.0381 14.7506 17.1112 14.7147 17.1815C14.2973 18 12.8648 18 9.99981 18C7.13482 18 5.70233 18 5.28489 17.1815C5.249 17.1112 5.21873 17.0381 5.19436 16.963C4.91078 16.089 5.92371 15.0761 7.94955 13.0503Z" fill="#1C274C"/>
<path d="M12 0H8C4.22876 0 2.34315 0 1.17157 1.17157C0 2.34315 0 4.22876 0 8C0 11.7712 0 13.6569 1.17157 14.8284C1.41375 15.0706 1.68645 15.2627 2 15.4151C2.48144 15.6491 3.05923 15.7895 3.7708 15.8737C3.93743 15.3407 4.24274 14.8823 4.51455 14.5269C5.04671 13.8313 5.86485 13.0133 6.81219 12.0661L6.94248 11.9358C7.36133 11.5168 7.76859 11.1094 8.14882 10.8141C8.5751 10.483 9.12577 10.163 9.842 10.1252C9.94713 10.1197 10.0525 10.1197 10.1576 10.1252C10.8738 10.163 11.4245 10.483 11.8508 10.8141C12.231 11.1094 12.6383 11.5168 13.0571 11.9358L13.1874 12.0661C14.1348 13.0133 14.9529 13.8313 15.4851 14.5269C15.7569 14.8823 16.0622 15.3408 16.2288 15.8738C16.9406 15.7896 17.5185 15.6492 18 15.4151C18.3136 15.2627 18.5862 15.0706 18.8284 14.8284C20 13.6569 20 11.7712 20 8C20 4.22876 20 2.34315 18.8284 1.17157C17.6569 0 15.7712 0 12 0Z" fill="#5C646D"/>
</svg>
