<svg width="20" height="21" viewBox="0 0 20 21" fill="none" xmlns="http://www.w3.org/2000/svg">
<path fill-rule="evenodd" clip-rule="evenodd" d="M9.99935 2.79102C5.74215 2.79102 2.29102 6.24215 2.29102 10.4993C2.29102 14.7565 5.74215 18.2077 9.99935 18.2077C14.2565 18.2077 17.7077 14.7565 17.7077 10.4993C17.7077 6.24215 14.2565 2.79102 9.99935 2.79102ZM1.04102 10.4993C1.04102 5.5518 5.0518 1.54102 9.99935 1.54102C14.9469 1.54102 18.9577 5.5518 18.9577 10.4993C18.9577 15.4469 14.9469 19.4577 9.99935 19.4577C5.0518 19.4577 1.04102 15.4469 1.04102 10.4993ZM9.99935 6.95768C9.48158 6.95768 9.06185 7.37742 9.06185 7.89518C9.06185 8.24036 8.78203 8.52018 8.43685 8.52018C8.09167 8.52018 7.81185 8.24036 7.81185 7.89518C7.81185 6.68706 8.79123 5.70768 9.99935 5.70768C11.2075 5.70768 12.1868 6.68706 12.1868 7.89518C12.1868 8.69796 11.7541 9.39899 11.1121 9.77882C10.9481 9.87582 10.8128 9.98174 10.7246 10.0857C10.639 10.1865 10.6243 10.2524 10.6243 10.291V11.3327C10.6243 11.6779 10.3445 11.9577 9.99935 11.9577C9.65417 11.9577 9.37435 11.6779 9.37435 11.3327V10.291C9.37435 9.86944 9.55891 9.52738 9.77151 9.27686C9.98154 9.02937 10.2434 8.84035 10.4756 8.70301C10.753 8.53884 10.9368 8.23814 10.9368 7.89518C10.9368 7.37742 10.5171 6.95768 9.99935 6.95768ZM9.99935 14.666C10.4596 14.666 10.8327 14.2929 10.8327 13.8327C10.8327 13.3724 10.4596 12.9993 9.99935 12.9993C9.53911 12.9993 9.16602 13.3724 9.16602 13.8327C9.16602 14.2929 9.53911 14.666 9.99935 14.666Z" fill="#5C646D"/>
</svg>
