<svg width="20" height="20" viewBox="0 0 20 20" fill="none" xmlns="http://www.w3.org/2000/svg">
<path fill-rule="evenodd" clip-rule="evenodd" d="M10 20C15.5228 20 20 15.5228 20 10C20 4.47715 15.5228 0 10 0C4.47715 0 0 4.47715 0 10C0 15.5228 4.47715 20 10 20ZM10.0002 7C11.1048 7 12.0002 6.10457 12.0002 5C12.0002 3.89543 11.1048 3 10.0002 3C8.89562 3 8.00019 3.89543 8.00019 5C8.00019 6.10457 8.89562 7 10.0002 7ZM4.29284 7.30945C3.91154 7.14785 3.4714 7.3259 3.30971 7.7072C3.148 8.08854 3.32605 8.52877 3.70739 8.69048L3.70871 8.69104L3.71133 8.69215L3.72038 8.69595L3.75338 8.7097C3.78186 8.7215 3.82313 8.73847 3.87608 8.75986C3.98193 8.80262 4.13459 8.86313 4.32498 8.93547C4.70531 9.07998 5.23854 9.27259 5.85162 9.46544C6.84049 9.77649 8.08803 10.1049 9.25019 10.2131V11.4522C9.25019 11.8837 9.12615 12.306 8.89285 12.6689L6.36931 16.5944C6.14532 16.9429 6.2462 17.4069 6.59463 17.6309C6.94305 17.8549 7.40709 17.754 7.63108 17.4056L10.0002 13.7203L12.3693 17.4056C12.5933 17.754 13.0573 17.8549 13.4058 17.6309C13.7542 17.4069 13.8551 16.9429 13.6311 16.5944L11.1075 12.6689C10.8742 12.306 10.7502 11.8837 10.7502 11.4522V10.2131C11.9124 10.1049 13.1599 9.77649 14.1488 9.46544C14.7619 9.27259 15.2951 9.07998 15.6754 8.93547C15.8658 8.86313 16.0185 8.80262 16.1243 8.75986C16.1773 8.73847 16.2185 8.7215 16.247 8.7097L16.28 8.69595L16.2891 8.69215L16.2917 8.69104L16.2928 8.69057C16.6741 8.52886 16.8524 8.08854 16.6907 7.7072C16.529 7.3259 16.0887 7.1479 15.7074 7.30952L15.6999 7.31266L15.6727 7.32399C15.6482 7.33416 15.6111 7.34942 15.5625 7.36905C15.4653 7.40832 15.3223 7.465 15.1426 7.53328C14.7828 7.67002 14.2777 7.85241 13.6987 8.03456C12.5205 8.40517 11.1114 8.75 10.0002 8.75C8.88895 8.75 7.47991 8.40517 6.30172 8.03456C5.72264 7.85241 5.21763 7.67002 4.85776 7.53328C4.67806 7.465 4.53512 7.40832 4.43791 7.36905C4.38932 7.34942 4.3522 7.33416 4.32767 7.32399L4.30046 7.31266L4.2942 7.31003L4.29284 7.30945Z" fill="#525961"/>
</svg>
