<svg width="20" height="21" viewBox="0 0 20 21" fill="none" xmlns="http://www.w3.org/2000/svg">
<path fill-rule="evenodd" clip-rule="evenodd" d="M10 7.37533C8.27411 7.37533 6.875 8.77444 6.875 10.5003C6.875 12.2262 8.27411 13.6253 10 13.6253C11.7259 13.6253 13.125 12.2262 13.125 10.5003C13.125 8.77444 11.7259 7.37533 10 7.37533ZM8.125 10.5003C8.125 9.46479 8.96447 8.62533 10 8.62533C11.0355 8.62533 11.875 9.46479 11.875 10.5003C11.875 11.5359 11.0355 12.3753 10 12.3753C8.96447 12.3753 8.125 11.5359 8.125 10.5003Z" fill="#5C646D"/>
<path fill-rule="evenodd" clip-rule="evenodd" d="M10 1.54199C9.41284 1.54199 8.87654 1.70332 8.29048 1.97563C7.7234 2.23912 7.06699 2.62786 6.24547 3.11437L5.6179 3.48602C4.79611 3.97268 4.13976 4.36136 3.63397 4.73319C3.11095 5.11769 2.70981 5.51125 2.41945 6.02709C2.12956 6.54211 1.99868 7.09278 1.93588 7.74621C1.87499 8.37982 1.87499 9.15575 1.875 10.1303V10.8703C1.87499 11.8449 1.87499 12.6208 1.93588 13.2544C1.99868 13.9079 2.12956 14.4585 2.41945 14.9736C2.70981 15.4894 3.11095 15.883 3.63397 16.2675C4.13976 16.6393 4.79611 17.028 5.6179 17.5146L6.2455 17.8863C7.06698 18.3728 7.72342 18.7615 8.29048 19.025C8.87654 19.2973 9.41284 19.4587 10 19.4587C10.5872 19.4587 11.1235 19.2973 11.7095 19.025C12.2766 18.7615 12.933 18.3728 13.7545 17.8863L14.3821 17.5146C15.2039 17.028 15.8602 16.6393 16.366 16.2675C16.889 15.883 17.2902 15.4894 17.5805 14.9736C17.8704 14.4585 18.0013 13.9079 18.0641 13.2544C18.125 12.6208 18.125 11.8449 18.125 10.8704V10.1303C18.125 9.15579 18.125 8.37981 18.0641 7.74621C18.0013 7.09278 17.8704 6.54211 17.5805 6.02709C17.2902 5.51125 16.889 5.11769 16.366 4.73319C15.8602 4.36136 15.2039 3.97268 14.3821 3.48603L13.7545 3.11437C12.933 2.62785 12.2766 2.23912 11.7095 1.97563C11.1235 1.70332 10.5872 1.54199 10 1.54199ZM6.85437 4.20653C7.71032 3.69963 8.31338 3.34334 8.81721 3.10924C9.3085 2.88096 9.65895 2.79199 10 2.79199C10.341 2.79199 10.6915 2.88096 11.1828 3.10923C11.6866 3.34334 12.2897 3.69963 13.1456 4.20653L13.7174 4.54515C14.5733 5.05197 15.1758 5.40961 15.6256 5.74033C16.0639 6.06255 16.3175 6.33154 16.4912 6.64023C16.6655 6.94973 16.7666 7.31191 16.8199 7.86579C16.8743 8.4327 16.875 9.14868 16.875 10.1617V10.8389C16.875 11.852 16.8743 12.568 16.8199 13.1349C16.7666 13.6887 16.6655 14.0509 16.4912 14.3604C16.3175 14.6691 16.0639 14.9381 15.6256 15.2603C15.1758 15.591 14.5733 15.9487 13.7174 16.4555L13.1456 16.7941C12.2897 17.301 11.6866 17.6573 11.1828 17.8914C10.6915 18.1197 10.341 18.2087 10 18.2087C9.65895 18.2087 9.3085 18.1197 8.81721 17.8914C8.31338 17.6573 7.71032 17.301 6.85437 16.7941L6.28257 16.4555C5.42675 15.9487 4.82422 15.591 4.37436 15.2603C3.93605 14.9381 3.6825 14.6691 3.50875 14.3604C3.33454 14.0509 3.23338 13.6887 3.18015 13.1349C3.12567 12.568 3.125 11.852 3.125 10.8389V10.1617C3.125 9.14868 3.12567 8.4327 3.18015 7.86579C3.23338 7.31191 3.33454 6.94973 3.50875 6.64023C3.6825 6.33154 3.93605 6.06255 4.37436 5.74033C4.82422 5.40961 5.42675 5.05197 6.28257 4.54515L6.85437 4.20653Z" fill="#5C646D"/>
</svg>
