<svg width="20" height="21" viewBox="0 0 20 21" fill="none" xmlns="http://www.w3.org/2000/svg">
<path d="M10 6.54199C10.3452 6.54199 10.625 6.82181 10.625 7.16699V10.5003C10.625 10.8455 10.3452 11.1253 10 11.1253C9.65482 11.1253 9.375 10.8455 9.375 10.5003V7.16699C9.375 6.82181 9.65482 6.54199 10 6.54199Z" fill="#5C646D"/>
<path d="M10 13.8337C10.4602 13.8337 10.8333 13.4606 10.8333 13.0003C10.8333 12.5401 10.4602 12.167 10 12.167C9.53976 12.167 9.16667 12.5401 9.16667 13.0003C9.16667 13.4606 9.53976 13.8337 10 13.8337Z" fill="#5C646D"/>
<path fill-rule="evenodd" clip-rule="evenodd" d="M7.26949 2.20959C8.47277 1.79748 9.21873 1.54199 10 1.54199C10.7813 1.54199 11.5272 1.79748 12.7305 2.20959L13.3367 2.4171C14.5711 2.83966 15.5238 3.16576 16.2058 3.44281C16.5493 3.58238 16.8447 3.71755 17.0825 3.85566C17.3114 3.98858 17.541 4.15436 17.697 4.37661C17.8512 4.59629 17.9309 4.86636 17.981 5.12634C18.0331 5.39662 18.0645 5.72085 18.0847 6.09313C18.125 6.83232 18.125 7.845 18.125 9.15851V10.4931C18.125 15.5773 14.285 18.0149 12.0014 19.0125L11.9788 19.0223C11.6957 19.1461 11.4295 19.2624 11.1237 19.3407C10.8008 19.4233 10.4577 19.4587 10 19.4587C9.54228 19.4587 9.19922 19.4233 8.87634 19.3406C8.57051 19.2624 8.30435 19.1461 8.02119 19.0223L7.99861 19.0125C5.71502 18.0149 1.875 15.5773 1.875 10.4931V9.15858C1.875 7.84505 1.875 6.83233 1.91525 6.09313C1.93552 5.72085 1.96693 5.39662 2.01901 5.12634C2.06911 4.86636 2.14884 4.59629 2.30303 4.37661C2.45902 4.15436 2.68862 3.98858 2.91748 3.85566C3.15531 3.71755 3.45065 3.58238 3.79419 3.44281C4.47617 3.16576 5.42885 2.83966 6.66329 2.41711L7.26949 2.20959ZM10 2.79199C9.45188 2.79199 8.91262 2.96836 7.56718 3.42891L7.08984 3.5923C5.82934 4.02377 4.91008 4.3387 4.26466 4.6009C3.9425 4.73177 3.70908 4.84145 3.54524 4.9366C3.46435 4.98358 3.40861 5.02234 3.37139 5.0526C3.33983 5.07825 3.3278 5.09278 3.32608 5.0949C3.32446 5.09751 3.31411 5.11483 3.29952 5.15577C3.28287 5.20253 3.26441 5.26956 3.24643 5.36287C3.21003 5.55174 3.18245 5.81117 3.1634 6.16109C3.12523 6.86208 3.125 7.8406 3.125 9.18087V10.4931C3.125 14.8057 6.34991 16.9282 8.49899 17.867C8.80856 18.0022 8.98732 18.0788 9.18633 18.1297C9.3764 18.1784 9.60833 18.2087 10 18.2087C10.3917 18.2087 10.6236 18.1784 10.8137 18.1297C11.0127 18.0788 11.1914 18.0022 11.501 17.867C13.6501 16.9282 16.875 14.8057 16.875 10.4931V9.18087C16.875 7.8406 16.8748 6.86208 16.8366 6.16109C16.8175 5.81117 16.79 5.55174 16.7536 5.36287C16.7356 5.26956 16.7171 5.20253 16.7005 5.15577C16.6859 5.1148 16.6755 5.09749 16.6739 5.09489C16.6722 5.09276 16.6601 5.07823 16.6286 5.0526C16.5914 5.02234 16.5356 4.98358 16.4548 4.9366C16.2909 4.84145 16.0575 4.73177 15.7353 4.6009C15.0899 4.3387 14.1707 4.02377 12.9102 3.5923L12.4328 3.42891C11.0874 2.96836 10.5481 2.79199 10 2.79199Z" fill="#5C646D"/>
</svg>
