<svg width="24" height="24" viewBox="0 0 24 24" fill="none" xmlns="http://www.w3.org/2000/svg">
    <path d="M8 7V6C8 4.89543 8.89543 4 10 4H14C15.1046 4 16 4.89543 16 6V7M20 8V21C20 21.5523 19.5523 22 19 22H5C4.44772 22 4 21.5523 4 21V8M8 7H16M8 7V11C8 11.5523 7.55228 12 7 12C6.44772 12 6 11.5523 6 11V7M18 7V11C18 11.5523 17.5523 12 17 12C16.4477 12 16 11.5523 16 11V7M10 16V18C10 19.1046 10.8954 20 12 20C13.1046 20 14 19.1046 14 18V16M10 16H14" stroke="#5c646d" stroke-width="2" stroke-linecap="round" stroke-linejoin="round"/>
</svg>
