<svg width="20" height="20" viewBox="0 0 20 20" fill="none" xmlns="http://www.w3.org/2000/svg">
<path d="M14.1328 8.12435C13.7876 8.12435 13.5078 7.84453 13.5078 7.49935L13.5078 1.66602C13.5078 1.32084 13.7876 1.04102 14.1328 1.04102C14.4779 1.04102 14.7578 1.32084 14.7578 1.66602L14.7578 7.49935C14.7578 7.84453 14.4779 8.12435 14.1328 8.12435Z" fill="#525961"/>
<path fill-rule="evenodd" clip-rule="evenodd" d="M5.83398 4.79102C7.55987 4.79102 8.95898 6.19013 8.95898 7.91602C8.95898 9.64191 7.55987 11.041 5.83398 11.041C4.10809 11.041 2.70898 9.64191 2.70898 7.91602C2.70898 6.19013 4.10809 4.79102 5.83398 4.79102ZM7.70898 7.91602C7.70898 6.88048 6.86952 6.04102 5.83398 6.04102C4.79845 6.04102 3.95898 6.88048 3.95898 7.91602C3.95898 8.95155 4.79845 9.79102 5.83398 9.79102C6.86952 9.79102 7.70898 8.95155 7.70898 7.91602Z" fill="#525961"/>
<path fill-rule="evenodd" clip-rule="evenodd" d="M14.1673 15.2077C15.8932 15.2077 17.2923 13.8086 17.2923 12.0827C17.2923 10.3568 15.8932 8.95768 14.1673 8.95768C12.4414 8.95768 11.0423 10.3568 11.0423 12.0827C11.0423 13.8086 12.4414 15.2077 14.1673 15.2077ZM16.0423 12.0827C16.0423 13.1182 15.2029 13.9577 14.1673 13.9577C13.1318 13.9577 12.2923 13.1182 12.2923 12.0827C12.2923 11.0471 13.1318 10.2077 14.1673 10.2077C15.2029 10.2077 16.0423 11.0471 16.0423 12.0827Z" fill="#525961"/>
<path d="M5.17442 12.4993C5.17442 12.1542 5.45424 11.8743 5.79942 11.8743C6.1446 11.8743 6.42442 12.1542 6.42442 12.4993V18.3327C6.42442 18.6779 6.1446 18.9577 5.79942 18.9577C5.45424 18.9577 5.17442 18.6779 5.17442 18.3327V12.4993Z" fill="#525961"/>
<path d="M14.1328 18.9577C13.7876 18.9577 13.5078 18.6779 13.5078 18.3327V16.666C13.5078 16.3208 13.7876 16.041 14.1328 16.041C14.4779 16.041 14.7578 16.3208 14.7578 16.666V18.3327C14.7578 18.6779 14.4779 18.9577 14.1328 18.9577Z" fill="#525961"/>
<path d="M5.17442 1.66602C5.17442 1.32084 5.45424 1.04102 5.79942 1.04102C6.1446 1.04102 6.42442 1.32084 6.42442 1.66602V3.33268C6.42442 3.67786 6.1446 3.95768 5.79942 3.95768C5.45424 3.95768 5.17442 3.67786 5.17442 3.33268V1.66602Z" fill="#525961"/>
</svg>
