<svg width="20" height="20" viewBox="0 0 20 20" fill="none" xmlns="http://www.w3.org/2000/svg">
<path fill-rule="evenodd" clip-rule="evenodd" d="M18.958 5.83398C18.958 6.17916 18.6782 6.45898 18.333 6.45898L1.66634 6.45898C1.32116 6.45898 1.04134 6.17916 1.04134 5.83398C1.04134 5.48881 1.32116 5.20898 1.66634 5.20898L18.333 5.20898C18.6782 5.20898 18.958 5.48881 18.958 5.83398Z" fill="#525961"/>
<path fill-rule="evenodd" clip-rule="evenodd" d="M16.458 10C16.458 10.3452 16.1782 10.625 15.833 10.625L4.16634 10.625C3.82116 10.625 3.54134 10.3452 3.54134 10C3.54134 9.65482 3.82116 9.375 4.16634 9.375L15.833 9.375C16.1782 9.375 16.458 9.65482 16.458 10Z" fill="#525961"/>
<path fill-rule="evenodd" clip-rule="evenodd" d="M13.958 14.166C13.958 14.5112 13.6782 14.791 13.333 14.791L6.66634 14.791C6.32116 14.791 6.04134 14.5112 6.04134 14.166C6.04134 13.8208 6.32116 13.541 6.66634 13.541H13.333C13.6782 13.541 13.958 13.8208 13.958 14.166Z" fill="#525961"/>
</svg>
