<svg width="59" height="52" viewBox="0 0 59 52" fill="none" xmlns="http://www.w3.org/2000/svg">
<g opacity="0.8" filter="url(#filter0_d_3740_10153)">
<rect x="11.6709" y="1.92871" width="41.2121" height="32.7273" rx="5" fill="#FCFEFF"/>
</g>
<g filter="url(#filter1_d_3740_10153)">
<rect x="6" y="7.77246" width="41.2121" height="32.7273" rx="4.28571" fill="#FB6428"/>
<path d="M35.5857 12.2302L38.7275 15.372L41.8564 12.2431C41.9672 12.1252 42.1213 12.0575 42.2831 12.0557C42.6401 12.0557 42.9295 12.3451 42.9295 12.7021C42.9326 12.8623 42.8694 13.0167 42.755 13.1288L39.5938 16.2577L42.755 19.4189C42.8615 19.5231 42.924 19.6643 42.9295 19.8132C42.9295 20.1703 42.6401 20.4597 42.2831 20.4597C42.1165 20.4666 41.9547 20.4033 41.837 20.2852L38.7275 17.1433L35.5922 20.2787C35.4818 20.3927 35.3305 20.4578 35.172 20.4597C34.8149 20.4597 34.5255 20.1703 34.5255 19.8132C34.5225 19.653 34.5856 19.4987 34.7 19.3866L37.8613 16.2577L34.7 13.0965C34.5935 12.9923 34.531 12.8511 34.5255 12.7021C34.5255 12.3451 34.8149 12.0557 35.172 12.0557C35.3274 12.0575 35.4759 12.1202 35.5857 12.2302Z" fill="#FCFEFF"/>
</g>
<defs>
<filter id="filter0_d_3740_10153" x="5.95661" y="1.92871" width="52.6405" height="44.1556" filterUnits="userSpaceOnUse" color-interpolation-filters="sRGB">
<feFlood flood-opacity="0" result="BackgroundImageFix"/>
<feColorMatrix in="SourceAlpha" type="matrix" values="0 0 0 0 0 0 0 0 0 0 0 0 0 0 0 0 0 0 127 0" result="hardAlpha"/>
<feOffset dy="5.71429"/>
<feGaussianBlur stdDeviation="2.85714"/>
<feComposite in2="hardAlpha" operator="out"/>
<feColorMatrix type="matrix" values="0 0 0 0 0 0 0 0 0 0 0 0 0 0 0 0 0 0 0.25 0"/>
<feBlend mode="normal" in2="BackgroundImageFix" result="effect1_dropShadow_3740_10153"/>
<feBlend mode="normal" in="SourceGraphic" in2="effect1_dropShadow_3740_10153" result="shape"/>
</filter>
<filter id="filter1_d_3740_10153" x="0.285714" y="7.77246" width="52.6405" height="44.1556" filterUnits="userSpaceOnUse" color-interpolation-filters="sRGB">
<feFlood flood-opacity="0" result="BackgroundImageFix"/>
<feColorMatrix in="SourceAlpha" type="matrix" values="0 0 0 0 0 0 0 0 0 0 0 0 0 0 0 0 0 0 127 0" result="hardAlpha"/>
<feOffset dy="5.71429"/>
<feGaussianBlur stdDeviation="2.85714"/>
<feColorMatrix type="matrix" values="0 0 0 0 0 0 0 0 0 0 0 0 0 0 0 0 0 0 0.25 0"/>
<feBlend mode="normal" in2="BackgroundImageFix" result="effect1_dropShadow_3740_10153"/>
<feBlend mode="normal" in="SourceGraphic" in2="effect1_dropShadow_3740_10153" result="shape"/>
</filter>
</defs>
</svg>
