<svg width="24" height="25" viewBox="0 0 24 25" fill="none" xmlns="http://www.w3.org/2000/svg">
<path opacity="0.5" d="M11.6115 22.5H12.3885C17.1445 22.5 21 18.5569 21 13.6928V13.4281C21 8.81651 18.2715 4.66347 14.0967 2.92077C12.7527 2.35974 11.2473 2.35974 9.90329 2.92077C5.72854 4.66347 3 8.81651 3 13.4281V13.6928C3 18.5569 6.85549 22.5 11.6115 22.5Z" fill="#E0E40F"/>
<path d="M12.0663 6.46126C12.2401 6.83722 12.0763 7.28293 11.7003 7.45679C10.1548 8.1715 8.90701 9.62514 8.3295 11.4497C8.20451 11.8447 7.78305 12.0635 7.38814 11.9385C6.99324 11.8135 6.77443 11.392 6.89942 10.9971C7.59142 8.81077 9.10582 7.00399 11.0707 6.09533C11.4467 5.92146 11.8924 6.0853 12.0663 6.46126Z" fill="#9F8C47"/>
</svg>
