<svg width="16" height="16" viewBox="0 0 16 16" fill="none" xmlns="http://www.w3.org/2000/svg">
<path opacity="0.5" d="M14 10.6649V6.66486V6.66485C14 4.77924 14 3.83643 13.4142 3.25064C12.902 2.73839 12.1167 2.67409 10.6667 2.66602H5.33333C3.88332 2.67409 3.09804 2.73839 2.58579 3.25064C2 3.83643 2 4.77924 2 6.66486V10.6649C2 12.5505 2 13.4933 2.58579 14.0791C3.17157 14.6649 4.11438 14.6649 6 14.6649H10C11.8856 14.6649 12.8284 14.6649 13.4142 14.0791C14 13.4933 14 12.5505 14 10.6649V10.6649Z" fill="#5C646D"/>
<path d="M5.33398 2.33398C5.33398 1.7817 5.7817 1.33398 6.33398 1.33398H9.66732C10.2196 1.33398 10.6673 1.7817 10.6673 2.33398V3.00065C10.6673 3.55294 10.2196 4.00065 9.66732 4.00065H6.33398C5.7817 4.00065 5.33398 3.55294 5.33398 3.00065V2.33398Z" fill="#5C646D"/>
<path fill-rule="evenodd" clip-rule="evenodd" d="M4.16602 9.66602C4.16602 9.38987 4.38987 9.16602 4.66602 9.16602H9.99935C10.2755 9.16602 10.4993 9.38987 10.4993 9.66602C10.4993 9.94216 10.2755 10.166 9.99935 10.166H4.66602C4.38987 10.166 4.16602 9.94216 4.16602 9.66602ZM4.16602 11.9993C4.16602 11.7232 4.38987 11.4993 4.66602 11.4993H8.33268C8.60882 11.4993 8.83268 11.7232 8.83268 11.9993C8.83268 12.2755 8.60882 12.4993 8.33268 12.4993H4.66602C4.38987 12.4993 4.16602 12.2755 4.16602 11.9993Z" fill="#5C646D"/>
</svg>
