<svg width="18" height="18" viewBox="0 0 18 18" fill="none" xmlns="http://www.w3.org/2000/svg">
<path fill-rule="evenodd" clip-rule="evenodd" d="M11.1875 1.16016H8.2297C6.88967 1.16015 5.82826 1.16014 4.99759 1.27182C4.1427 1.38675 3.45076 1.62892 2.90507 2.1746C2.35939 2.72029 2.11722 3.41223 2.00229 4.26712C1.8906 5.09779 1.89061 6.15919 1.89063 7.49922V11.9154C1.89063 13.2805 2.89108 14.4121 4.19881 14.6167C4.29942 15.1738 4.49195 15.6493 4.87901 16.0364C5.3179 16.4753 5.87052 16.664 6.52685 16.7523C7.15901 16.8373 7.96279 16.8373 8.95999 16.8372H11.2275C12.2247 16.8373 13.0285 16.8373 13.6607 16.7523C14.317 16.664 14.8696 16.4753 15.3085 16.0364C15.7474 15.5975 15.9362 15.0448 16.0244 14.3885C16.1094 13.7564 16.1094 12.9526 16.1094 11.9554V8.22952C16.1094 7.23232 16.1094 6.42854 16.0244 5.79638C15.9362 5.14005 15.7474 4.58743 15.3085 4.14854C14.9214 3.76148 14.4459 3.56895 13.8889 3.46834C13.6842 2.16061 12.5527 1.16016 11.1875 1.16016ZM12.7401 3.36309C12.5193 2.71783 11.9076 2.25391 11.1875 2.25391H8.27083C6.88044 2.25391 5.89267 2.25507 5.14333 2.35581C4.40972 2.45445 3.98706 2.63941 3.67847 2.948C3.36988 3.25659 3.18491 3.67925 3.08628 4.41286C2.98554 5.1622 2.98438 6.14997 2.98438 7.54036V11.9154C2.98438 12.6355 3.4483 13.2472 4.09356 13.468C4.07811 13.0232 4.07812 12.5204 4.07813 11.9554V8.22952C4.07811 7.23232 4.0781 6.42854 4.16309 5.79638C4.25133 5.14005 4.44011 4.58743 4.87901 4.14854C5.3179 3.70964 5.87052 3.52086 6.52685 3.43262C7.15901 3.34763 7.96279 3.34764 8.95999 3.34766H11.2275C11.7925 3.34765 12.2954 3.34764 12.7401 3.36309ZM5.6524 4.92194C5.85421 4.72013 6.13754 4.58855 6.67259 4.51662C7.22337 4.44257 7.95334 4.44141 9 4.44141H11.1875C12.2342 4.44141 12.9641 4.44257 13.5149 4.51662C14.05 4.58855 14.3333 4.72013 14.5351 4.92194C14.7369 5.12374 14.8685 5.40708 14.9404 5.94212C15.0145 6.4929 15.0156 7.22287 15.0156 8.26953V11.9154C15.0156 12.962 15.0145 13.692 14.9404 14.2428C14.8685 14.7778 14.7369 15.0612 14.5351 15.263C14.3333 15.4648 14.05 15.5963 13.5149 15.6683C12.9641 15.7423 12.2342 15.7435 11.1875 15.7435H9C7.95334 15.7435 7.22337 15.7423 6.67259 15.6683C6.13754 15.5963 5.85421 15.4648 5.6524 15.263C5.4506 15.0612 5.31902 14.7778 5.24709 14.2428C5.17304 13.692 5.17188 12.962 5.17188 11.9154V8.26953C5.17188 7.22287 5.17304 6.4929 5.24709 5.94212C5.31902 5.40708 5.4506 5.12374 5.6524 4.92194Z" fill="#525961"/>
</svg>
