<svg width="18" height="18" viewBox="0 0 18 18" fill="none" xmlns="http://www.w3.org/2000/svg">
<path fill-rule="evenodd" clip-rule="evenodd" d="M9 2.0625C5.16852 2.0625 2.0625 5.16852 2.0625 9C2.0625 10.1108 2.32314 11.1591 2.7861 12.0886C2.97191 12.4616 3.04346 12.9077 2.92622 13.3459L2.47952 15.0154C2.39748 15.322 2.678 15.6025 2.98462 15.5205L4.65415 15.0738C5.0923 14.9565 5.53838 15.0281 5.91143 15.2139C6.8409 15.6769 7.88921 15.9375 9 15.9375C12.8315 15.9375 15.9375 12.8315 15.9375 9C15.9375 5.16852 12.8315 2.0625 9 2.0625ZM0.9375 9C0.9375 4.5472 4.5472 0.9375 9 0.9375C13.4528 0.9375 17.0625 4.5472 17.0625 9C17.0625 13.4528 13.4528 17.0625 9 17.0625C7.71127 17.0625 6.49164 16.7597 5.40986 16.2209C5.24843 16.1405 5.0836 16.1234 4.94493 16.1605L3.2754 16.6073C2.13253 16.913 1.08696 15.8675 1.39275 14.7246L1.83945 13.0551C1.87656 12.9164 1.8595 12.7516 1.77909 12.5901C1.24028 11.5084 0.9375 10.2887 0.9375 9ZM5.4375 7.875C5.4375 7.56434 5.68934 7.3125 6 7.3125H12C12.3107 7.3125 12.5625 7.56434 12.5625 7.875C12.5625 8.18566 12.3107 8.4375 12 8.4375H6C5.68934 8.4375 5.4375 8.18566 5.4375 7.875ZM5.4375 10.5C5.4375 10.1893 5.68934 9.9375 6 9.9375H10.125C10.4357 9.9375 10.6875 10.1893 10.6875 10.5C10.6875 10.8107 10.4357 11.0625 10.125 11.0625H6C5.68934 11.0625 5.4375 10.8107 5.4375 10.5Z" fill="#A4B1BD"/>
</svg>
