<svg width="16" height="16" viewBox="0 0 16 16" fill="none" xmlns="http://www.w3.org/2000/svg">
<path d="M10.3327 4.99935C10.3327 6.28801 9.28801 7.33268 7.99935 7.33268C6.71068 7.33268 5.66602 6.28801 5.66602 4.99935C5.66602 3.71068 6.71068 2.66602 7.99935 2.66602C9.28801 2.66602 10.3327 3.71068 10.3327 4.99935Z" fill="#FC8353"/>
<path d="M12 10.9993C12 12.288 10.2091 13.3327 8 13.3327C5.79086 13.3327 4 12.288 4 10.9993C4 9.71068 5.79086 8.66602 8 8.66602C10.2091 8.66602 12 9.71068 12 10.9993Z" fill="#FC8353"/>
<path d="M4.74868 3.33398C4.86699 3.33398 4.98249 3.34559 5.09402 3.36769C4.82231 3.85029 4.66732 4.40737 4.66732 5.00065C4.66732 5.57949 4.81486 6.12386 5.07438 6.59822C4.96895 6.61787 4.86006 6.62816 4.74868 6.62816C3.80574 6.62816 3.04133 5.89073 3.04133 4.98107C3.04133 4.07141 3.80574 3.33398 4.74868 3.33398Z" fill="#FC8353"/>
<path d="M3.63221 12.658C3.2536 12.2054 3.00065 11.65 3.00065 11.0007C3.00065 10.3712 3.23837 9.82998 3.59784 9.38514C2.32805 9.48363 1.33398 10.1781 1.33398 11.0202C1.33398 11.8703 2.34552 12.5699 3.63221 12.658Z" fill="#FC8353"/>
<path d="M11.333 5.00065C11.333 5.57949 11.1854 6.12386 10.9259 6.59823C11.0313 6.61787 11.1402 6.62816 11.2516 6.62816C12.1945 6.62816 12.9589 5.89073 12.9589 4.98107C12.9589 4.07141 12.1945 3.33398 11.2516 3.33398C11.1333 3.33398 11.0178 3.34559 10.9062 3.36769C11.178 3.85029 11.333 4.40737 11.333 5.00065Z" fill="#FC8353"/>
<path d="M12.3681 12.658C13.6548 12.5699 14.6663 11.8703 14.6663 11.0202C14.6663 10.1781 13.6722 9.48363 12.4024 9.38514C12.7619 9.82998 12.9996 10.3712 12.9996 11.0007C12.9996 11.65 12.7467 12.2054 12.3681 12.658Z" fill="#FC8353"/>
</svg>
