<svg width="18" height="16" viewBox="0 0 18 16" fill="none" xmlns="http://www.w3.org/2000/svg">
<g clip-path="url(#clip0_4256_3277)">
<path d="M4.55534 13.5C5.47581 13.5 6.22201 12.8284 6.22201 12C6.22201 11.1716 5.47581 10.5 4.55534 10.5C3.63486 10.5 2.88867 11.1716 2.88867 12C2.88867 12.8284 3.63486 13.5 4.55534 13.5Z" fill="#3393FF" stroke="#3393FF" stroke-width="1.11111" stroke-linecap="round" stroke-linejoin="round"/>
<path d="M13.446 5.5C14.3664 5.5 15.1126 4.82843 15.1126 4C15.1126 3.17157 14.3664 2.5 13.446 2.5C12.5255 2.5 11.7793 3.17157 11.7793 4C11.7793 4.82843 12.5255 5.5 13.446 5.5Z" fill="#3393FF" stroke="#3393FF" stroke-width="1.11111" stroke-linecap="round" stroke-linejoin="round"/>
<path d="M12.2663 5.06055L5.73438 10.9393" stroke="#3393FF" stroke-width="1.11111" stroke-linecap="round" stroke-linejoin="round"/>
</g>
<defs>
<clipPath id="clip0_4256_3277">
<rect width="17.7778" height="16" fill="white" transform="translate(0.111328)"/>
</clipPath>
</defs>
</svg>
