<svg width="1103" height="65" viewBox="0 0 1103 65" fill="none" xmlns="http://www.w3.org/2000/svg">
<rect x="329" y="13.5" width="319" height="38" rx="7.5" stroke="#D6DAE1"/>
<path d="M360 40L356.375 36.375M358.333 31.6667C358.333 35.3486 355.349 38.3333 351.667 38.3333C347.985 38.3333 345 35.3486 345 31.6667C345 27.9848 347.985 25 351.667 25C355.349 25 358.333 27.9848 358.333 31.6667Z" stroke="#778BAA" stroke-width="1.66667" stroke-linecap="round" stroke-linejoin="round"/>
<path d="M373.012 33.3V38.5H371.876V27.044H376.676C377.871 27.044 378.761 27.284 379.348 27.764C379.967 28.2653 380.276 29.028 380.276 30.052C380.276 31.3427 379.679 32.2653 378.484 32.82C378.975 33.044 379.327 33.348 379.54 33.732C379.764 34.116 379.897 34.6653 379.94 35.38L380.036 36.868C380.068 37.2733 380.132 37.588 380.228 37.812C380.324 38.036 380.5 38.2653 380.756 38.5H379.236C379.076 38.1053 378.975 37.6733 378.932 37.204L378.82 35.892C378.745 34.9 378.548 34.2227 378.228 33.86C377.908 33.4867 377.359 33.3 376.58 33.3H373.012ZM373.012 32.388H376.468C377.428 32.388 378.111 32.2067 378.516 31.844C378.943 31.46 379.156 30.916 379.156 30.212C379.156 29.508 378.943 28.9587 378.516 28.564C378.111 28.2013 377.428 28.02 376.468 28.02H373.012V32.388ZM389.579 34.516H383.371C383.403 35.6253 383.691 36.468 384.235 37.044C384.704 37.556 385.323 37.812 386.091 37.812C387.296 37.812 388.112 37.172 388.539 35.892H389.579C388.992 37.78 387.819 38.724 386.059 38.724C384.832 38.724 383.883 38.2867 383.211 37.412C382.624 36.6333 382.331 35.6253 382.331 34.388C382.331 32.9693 382.715 31.8493 383.483 31.028C384.155 30.324 385.008 29.972 386.043 29.972C387.206 29.972 388.107 30.3933 388.747 31.236C389.312 31.972 389.595 32.9373 389.595 34.132C389.595 34.2067 389.59 34.3347 389.579 34.516ZM388.523 33.684C388.48 32.8093 388.24 32.1267 387.803 31.636C387.366 31.1347 386.784 30.884 386.059 30.884C385.334 30.884 384.742 31.1293 384.283 31.62C383.824 32.1 383.536 32.788 383.419 33.684H388.523ZM398.247 32.772H397.207C397.1 32.1747 396.844 31.7107 396.439 31.38C396.034 31.0493 395.522 30.884 394.903 30.884C394.007 30.884 393.314 31.2307 392.823 31.924C392.396 32.532 392.183 33.3213 392.183 34.292C392.183 35.444 392.466 36.34 393.031 36.98C393.522 37.5347 394.156 37.812 394.935 37.812C396.258 37.812 397.047 37.0707 397.303 35.588H398.295C398.124 36.6547 397.708 37.4653 397.047 38.02C396.46 38.4893 395.74 38.724 394.887 38.724C393.671 38.724 392.722 38.2813 392.039 37.396C391.452 36.6173 391.159 35.6093 391.159 34.372C391.159 32.9533 391.554 31.8387 392.343 31.028C393.026 30.324 393.895 29.972 394.951 29.972C395.911 29.972 396.695 30.2547 397.303 30.82C397.826 31.3213 398.14 31.972 398.247 32.772ZM400.155 38.5V27.044H401.179V31.268C401.776 30.404 402.64 29.972 403.771 29.972C404.784 29.972 405.541 30.2867 406.043 30.916C406.384 31.3427 406.555 32.0307 406.555 32.98V38.5H405.531V33.124C405.531 32.4307 405.419 31.924 405.195 31.604C404.875 31.124 404.357 30.884 403.643 30.884C402.875 30.884 402.256 31.1507 401.787 31.684C401.381 32.1533 401.179 32.7293 401.179 33.412V38.5H400.155ZM415.829 34.516H409.621C409.653 35.6253 409.941 36.468 410.485 37.044C410.954 37.556 411.573 37.812 412.341 37.812C413.546 37.812 414.362 37.172 414.789 35.892H415.829C415.242 37.78 414.069 38.724 412.309 38.724C411.082 38.724 410.133 38.2867 409.461 37.412C408.874 36.6333 408.581 35.6253 408.581 34.388C408.581 32.9693 408.965 31.8493 409.733 31.028C410.405 30.324 411.258 29.972 412.293 29.972C413.456 29.972 414.357 30.3933 414.997 31.236C415.562 31.972 415.845 32.9373 415.845 34.132C415.845 34.2067 415.84 34.3347 415.829 34.516ZM414.773 33.684C414.73 32.8093 414.49 32.1267 414.053 31.636C413.616 31.1347 413.034 30.884 412.309 30.884C411.584 30.884 410.992 31.1293 410.533 31.62C410.074 32.1 409.786 32.788 409.669 33.684H414.773ZM417.889 30.196H418.913L418.865 31.684C419.281 30.6173 420.07 30.084 421.233 30.084C421.318 30.084 421.457 30.0893 421.649 30.1L421.633 31.156C421.473 31.124 421.361 31.108 421.297 31.108C420.497 31.1187 419.878 31.428 419.441 32.036C419.089 32.5267 418.913 33.2253 418.913 34.132V38.5H417.889V30.196ZM429.856 32.772H428.816C428.71 32.1747 428.454 31.7107 428.048 31.38C427.643 31.0493 427.131 30.884 426.512 30.884C425.616 30.884 424.923 31.2307 424.432 31.924C424.006 32.532 423.792 33.3213 423.792 34.292C423.792 35.444 424.075 36.34 424.64 36.98C425.131 37.5347 425.766 37.812 426.544 37.812C427.867 37.812 428.656 37.0707 428.912 35.588H429.904C429.734 36.6547 429.318 37.4653 428.656 38.02C428.07 38.4893 427.35 38.724 426.496 38.724C425.28 38.724 424.331 38.2813 423.648 37.396C423.062 36.6173 422.768 35.6093 422.768 34.372C422.768 32.9533 423.163 31.8387 423.952 31.028C424.635 30.324 425.504 29.972 426.56 29.972C427.52 29.972 428.304 30.2547 428.912 30.82C429.435 31.3213 429.75 31.972 429.856 32.772ZM431.764 38.5V27.044H432.788V31.268C433.385 30.404 434.249 29.972 435.38 29.972C436.393 29.972 437.151 30.2867 437.652 30.916C437.993 31.3427 438.164 32.0307 438.164 32.98V38.5H437.14V33.124C437.14 32.4307 437.028 31.924 436.804 31.604C436.484 31.124 435.967 30.884 435.252 30.884C434.484 30.884 433.865 31.1507 433.396 31.684C432.991 32.1533 432.788 32.7293 432.788 33.412V38.5H431.764ZM447.438 34.516H441.23C441.262 35.6253 441.55 36.468 442.094 37.044C442.564 37.556 443.182 37.812 443.95 37.812C445.156 37.812 445.972 37.172 446.398 35.892H447.438C446.852 37.78 445.678 38.724 443.918 38.724C442.692 38.724 441.742 38.2867 441.07 37.412C440.484 36.6333 440.19 35.6253 440.19 34.388C440.19 32.9693 440.574 31.8493 441.342 31.028C442.014 30.324 442.868 29.972 443.902 29.972C445.065 29.972 445.966 30.3933 446.606 31.236C447.172 31.972 447.454 32.9373 447.454 34.132C447.454 34.2067 447.449 34.3347 447.438 34.516ZM446.382 33.684C446.34 32.8093 446.1 32.1267 445.662 31.636C445.225 31.1347 444.644 30.884 443.918 30.884C443.193 30.884 442.601 31.1293 442.142 31.62C441.684 32.1 441.396 32.788 441.278 33.684H446.382ZM449.498 30.196H450.522L450.474 31.684C450.89 30.6173 451.68 30.084 452.842 30.084C452.928 30.084 453.066 30.0893 453.258 30.1L453.242 31.156C453.082 31.124 452.97 31.108 452.906 31.108C452.106 31.1187 451.488 31.428 451.05 32.036C450.698 32.5267 450.522 33.2253 450.522 34.132V38.5H449.498V30.196Z" fill="#778BAA"/>
<rect x="872.5" y="11.5" width="93" height="42" rx="8" fill="#2962D8"/>
<path d="M894.881 27.044H897.249V34.628C897.249 35.876 896.876 36.836 896.129 37.508C895.276 38.2867 894.134 38.676 892.705 38.676C891.276 38.676 890.134 38.2867 889.281 37.508C888.534 36.836 888.161 35.876 888.161 34.628V27.044H890.513V34.628C890.513 35.9827 891.244 36.66 892.705 36.66C894.156 36.66 894.881 35.9827 894.881 34.628V27.044ZM901.567 30.02V31.236C902.079 30.308 902.863 29.844 903.919 29.844C904.42 29.844 904.911 29.9667 905.391 30.212C905.881 30.4573 906.271 30.7773 906.559 31.172C907.167 32.0147 907.471 33.0653 907.471 34.324C907.471 35.6787 907.092 36.772 906.335 37.604C905.684 38.3187 904.879 38.676 903.919 38.676C902.873 38.676 902.089 38.276 901.567 37.476V41.924H899.359V30.02H901.567ZM903.407 31.684C902.852 31.684 902.404 31.924 902.063 32.404C901.721 32.8733 901.551 33.4973 901.551 34.276C901.551 35.044 901.721 35.6627 902.063 36.132C902.404 36.6013 902.852 36.836 903.407 36.836C903.961 36.836 904.409 36.6013 904.751 36.132C905.092 35.6627 905.263 35.044 905.263 34.276C905.263 33.4973 905.092 32.8733 904.751 32.404C904.409 31.924 903.961 31.684 903.407 31.684ZM914.407 30.02H916.503V38.42C916.503 39.732 916.092 40.6707 915.271 41.236C914.578 41.6947 913.628 41.924 912.423 41.924C911.164 41.924 910.204 41.652 909.543 41.108C908.999 40.6707 908.716 40.1427 908.695 39.524H910.967C911.148 40.1853 911.671 40.516 912.535 40.516C913.079 40.516 913.538 40.3453 913.911 40.004C914.242 39.7053 914.407 39.2413 914.407 38.612V37.348C914.002 37.8493 913.623 38.196 913.271 38.388C912.919 38.58 912.492 38.676 911.991 38.676C910.892 38.676 910.023 38.228 909.383 37.332C908.818 36.564 908.535 35.588 908.535 34.404C908.535 33.0067 908.914 31.8653 909.671 30.98C910.332 30.2227 911.132 29.844 912.071 29.844C912.988 29.844 913.767 30.2867 914.407 31.172V30.02ZM912.519 31.684C911.986 31.684 911.554 31.9293 911.223 32.42C910.903 32.9107 910.743 33.5507 910.743 34.34C910.743 35.0973 910.903 35.7053 911.223 36.164C911.554 36.6227 911.986 36.852 912.519 36.852C913.074 36.852 913.532 36.6173 913.895 36.148C914.236 35.7107 914.407 35.1027 914.407 34.324C914.407 33.4813 914.21 32.8147 913.815 32.324C913.474 31.8973 913.042 31.684 912.519 31.684ZM918.594 30.02H920.802V31.636C921.079 30.4413 921.868 29.844 923.17 29.844C923.372 29.844 923.516 29.844 923.602 29.844L923.618 32.02C923.351 31.9667 923.074 31.94 922.786 31.94C922.06 31.94 921.559 32.0733 921.282 32.34C920.962 32.6387 920.802 33.1773 920.802 33.956V38.5H918.594V30.02ZM931.951 37.94V38.5H929.551C929.391 38.2973 929.306 38.0093 929.295 37.636C928.708 38.3293 927.855 38.676 926.735 38.676C925.914 38.676 925.252 38.4253 924.751 37.924C924.346 37.5187 924.143 36.9587 924.143 36.244C924.143 35.1773 924.57 34.42 925.423 33.972C925.786 33.78 926.506 33.588 927.583 33.396L929.311 33.076L929.295 32.468C929.284 31.9027 928.858 31.62 928.015 31.62C927.471 31.62 927.087 31.7053 926.863 31.876C926.65 32.036 926.516 32.3347 926.463 32.772H924.351C924.479 30.82 925.684 29.844 927.967 29.844C929.226 29.844 930.132 30.068 930.687 30.516C931.188 30.9427 931.439 31.588 931.439 32.452V37.188C931.439 37.572 931.61 37.8227 931.951 37.94ZM929.311 34.404L927.695 34.772C927.236 34.8787 926.895 35.0333 926.671 35.236C926.458 35.4387 926.351 35.6893 926.351 35.988C926.351 36.596 926.746 36.9 927.535 36.9C928.676 36.9 929.263 36.276 929.295 35.028L929.311 34.404ZM941.021 27.044V38.5H938.813V37.556C938.301 38.3027 937.528 38.676 936.493 38.676C935.373 38.676 934.472 38.2067 933.789 37.268C933.203 36.468 932.909 35.4707 932.909 34.276C932.909 32.8573 933.283 31.7373 934.029 30.916C934.68 30.2013 935.496 29.844 936.477 29.844C937.512 29.844 938.291 30.2387 938.813 31.028V27.044H941.021ZM936.973 31.652C936.419 31.652 935.971 31.892 935.629 32.372C935.288 32.852 935.117 33.4813 935.117 34.26C935.117 35.028 935.283 35.652 935.613 36.132C935.955 36.6013 936.408 36.836 936.973 36.836C937.539 36.836 937.987 36.6013 938.317 36.132C938.659 35.6627 938.829 35.0387 938.829 34.26C938.829 33.4707 938.659 32.8413 938.317 32.372C937.976 31.892 937.528 31.652 936.973 31.652ZM950.47 34.836H944.774C944.806 35.5187 944.912 36.004 945.094 36.292C945.403 36.7613 945.888 36.996 946.55 36.996C947.371 36.996 947.92 36.6547 948.198 35.972H950.374C950.128 36.804 949.648 37.4653 948.934 37.956C948.23 38.436 947.403 38.676 946.454 38.676C945.163 38.676 944.171 38.244 943.478 37.38C942.87 36.6227 942.566 35.6253 942.566 34.388C942.566 32.884 942.96 31.7213 943.75 30.9C944.443 30.196 945.355 29.844 946.486 29.844C947.35 29.844 948.107 30.0573 948.758 30.484C949.408 30.9107 949.872 31.508 950.15 32.276C950.374 32.8733 950.486 33.5933 950.486 34.436C950.486 34.5427 950.48 34.676 950.47 34.836ZM948.182 33.38C948.075 32.1427 947.504 31.524 946.47 31.524C945.499 31.524 944.944 32.1427 944.806 33.38H948.182Z" fill="white"/>
<path fill-rule="evenodd" clip-rule="evenodd" d="M1004.5 33.8V29.5C1004.5 27.1 1002.8 25.1 1000.5 24.6V23.5C1000.5 23 1000 22.5 999.5 22.5C999 22.5 998.5 23 998.5 23.5V24.6C996.2 25.1 994.5 27.1 994.5 29.5V33.9C993.4 34.4 991.5 35.8 991.5 38.5C991.5 39 992 39.5 992.5 39.5H996.5C996.5 41.1569 997.843 42.5 999.5 42.5C1001.16 42.5 1002.5 41.1569 1002.5 39.5H1003.55C1002.9 38.8647 1002.5 37.9793 1002.5 37C1002.5 35.5896 1003.33 34.374 1004.54 33.8199C1004.52 33.8132 1004.51 33.8065 1004.5 33.8ZM999.5 40.5C998.948 40.5 998.5 40.0523 998.5 39.5H1000.5C1000.5 40.0523 1000.05 40.5 999.5 40.5Z" fill="#F9C441"/>
<circle cx="1005" cy="37" r="3.5" fill="#FF4141"/>
<rect x="1033.5" y="12.75" width="39.5" height="39.5" rx="19.75" fill="#2962D8"/>
<circle cx="1053.25" cy="25.9167" r="4.38889" stroke="white" stroke-width="1.64583"/>
<ellipse cx="1053.25" cy="37.9861" rx="7.68056" ry="4.38889" stroke="white" stroke-width="1.64583"/>
</svg>
