<svg width="31" height="32" viewBox="0 0 31 32" fill="none" xmlns="http://www.w3.org/2000/svg">
<path d="M30.7023 16.1878C30.7023 15.1429 30.6169 14.102 30.4382 13.0718H15.9727V18.9727H24.2568C23.9144 20.8765 22.809 22.5607 21.1941 23.628V27.4616H26.1398C29.0352 24.7992 30.7023 20.8541 30.7023 16.1878Z" fill="#4285F4"/>
<path d="M15.9728 31.165C20.1113 31.165 23.5984 29.8078 26.14 27.4653L21.1943 23.6317C19.8173 24.565 18.0458 25.0967 15.9728 25.0967C11.9724 25.0967 8.57826 22.4012 7.36141 18.772H2.27051V22.7207C4.87544 27.9004 10.1749 31.165 15.9728 31.165Z" fill="#34A853"/>
<path d="M7.36514 18.7718C6.72144 16.8718 6.72144 14.8081 7.36514 12.9046V8.95947H2.27064C0.0933818 13.2911 0.0933818 18.3925 2.27064 22.7244L7.36514 18.7718Z" fill="#FBBC04"/>
<path d="M15.9728 6.58354C18.1612 6.55007 20.2712 7.37195 21.8565 8.88155L26.2368 4.50877C23.4606 1.90615 19.7838 0.474564 15.9728 0.515503C10.1749 0.515503 4.87183 3.7837 2.27051 8.95957L7.36501 12.9083C8.57826 9.2755 11.9724 6.58354 15.9728 6.58354Z" fill="#EA4335"/>
</svg>
