<svg width="16" height="15" viewBox="0 0 16 15" fill="none" xmlns="http://www.w3.org/2000/svg">
<path d="M8.00065 0.208496C7.65547 0.208496 7.37565 0.488318 7.37565 0.833496C7.37565 1.17867 7.65547 1.4585 8.00065 1.4585C11.3374 1.4585 14.0423 4.16344 14.0423 7.50016C14.0423 10.8369 11.3374 13.5418 8.00065 13.5418C7.65547 13.5418 7.37565 13.8217 7.37565 14.1668C7.37565 14.512 7.65547 14.7918 8.00065 14.7918C12.0277 14.7918 15.2923 11.5272 15.2923 7.50016C15.2923 3.47309 12.0277 0.208496 8.00065 0.208496Z" fill="#0078ff"/>
<path d="M6.72538 5.4421C6.4813 5.19803 6.4813 4.8023 6.72538 4.55822C6.96945 4.31414 7.36518 4.31414 7.60926 4.55822L10.1093 7.05822C10.3533 7.3023 10.3533 7.69803 10.1093 7.9421L7.60926 10.4421C7.36518 10.6862 6.96945 10.6862 6.72538 10.4421C6.4813 10.198 6.4813 9.8023 6.72538 9.55822L8.15843 8.12516H1.33398C0.988807 8.12516 0.708984 7.84534 0.708984 7.50016C0.708984 7.15498 0.988807 6.87516 1.33398 6.87516H8.15843L6.72538 5.4421Z" fill="#0078ff"/>
</svg>
