<svg width="24" height="25" viewBox="0 0 24 25" fill="none" xmlns="http://www.w3.org/2000/svg">
<path fill-rule="evenodd" clip-rule="evenodd" d="M9.94358 1.75L15.5344 1.75C16.6726 1.74999 17.5745 1.74999 18.3005 1.81174C19.0431 1.8749 19.6701 2.00674 20.2391 2.31087C21.0677 2.75373 21.7463 3.43234 22.1891 4.26087C22.4933 4.82985 22.6251 5.45693 22.6883 6.19952C22.75 6.92548 22.75 7.82741 22.75 8.96554V9C22.75 9.41421 22.4142 9.75 22 9.75C21.5858 9.75 21.25 9.41421 21.25 9C21.25 7.81978 21.2494 6.9816 21.1937 6.32665C21.1387 5.68101 21.0344 5.28261 20.8662 4.96796C20.5632 4.40107 20.0989 3.93677 19.532 3.63376C19.2174 3.46557 18.819 3.36126 18.1734 3.30634C17.5184 3.25063 16.6802 3.25 15.5 3.25H10C8.09318 3.25 6.73851 3.25159 5.71085 3.38976C4.70476 3.52502 4.12511 3.77869 3.7019 4.2019C3.27869 4.62511 3.02503 5.20476 2.88976 6.21085C2.75159 7.23851 2.75 8.59318 2.75 10.5V11.5C2.75 11.959 2.75016 12.3736 2.75371 12.75H11C11.4142 12.75 11.75 13.0858 11.75 13.5C11.75 13.9142 11.4142 14.25 11 14.25H2.80673C2.81924 14.4063 2.83451 14.5533 2.85315 14.6919C2.9518 15.4257 3.13225 15.8142 3.40901 16.091C3.68577 16.3678 4.07435 16.5482 4.80812 16.6469C5.56347 16.7484 6.56459 16.75 8 16.75H11C11.4142 16.75 11.75 17.0858 11.75 17.5V22.5C11.75 22.9142 11.4142 23.25 11 23.25H8C7.58579 23.25 7.25 22.9142 7.25 22.5C7.25 22.0858 7.58579 21.75 8 21.75H10.25V18.25H7.94513C6.57754 18.25 5.47522 18.25 4.60825 18.1335C3.70814 18.0125 2.95027 17.7536 2.34835 17.1517C1.74643 16.5497 1.48754 15.7919 1.36652 14.8918C1.31805 14.5312 1.28974 14.1299 1.2732 13.6858C1.25805 13.6264 1.25 13.5641 1.25 13.5C1.25 13.4518 1.25454 13.4047 1.26323 13.359C1.24998 12.8176 1.24999 12.2174 1.25 11.5549L1.25 10.4436C1.24998 8.60582 1.24997 7.15019 1.40314 6.01098C1.56076 4.83856 1.89288 3.88961 2.64124 3.14124C3.38961 2.39288 4.33856 2.06076 5.51098 1.90314C6.65019 1.74997 8.10582 1.74998 9.94358 1.75ZM17.948 10.75H18.052C18.9505 10.75 19.6997 10.7499 20.2945 10.8299C20.9223 10.9143 21.4891 11.1 21.9445 11.5555C22.4 12.0109 22.5857 12.5777 22.6701 13.2055C22.7501 13.8003 22.75 14.5495 22.75 15.448V18.552C22.75 19.4505 22.7501 20.1997 22.6701 20.7945C22.5857 21.4223 22.4 21.9891 21.9445 22.4445C21.4891 22.9 20.9223 23.0857 20.2945 23.1701C19.6997 23.2501 18.9505 23.25 18.052 23.25H17.948C17.0495 23.25 16.3003 23.2501 15.7055 23.1701C15.0777 23.0857 14.5109 22.9 14.0555 22.4445C13.6 21.9891 13.4143 21.4223 13.3299 20.7945C13.2499 20.1997 13.25 19.4505 13.25 18.552V15.448C13.25 14.5495 13.2499 13.8003 13.3299 13.2055C13.4143 12.5777 13.6 12.0109 14.0555 11.5555C14.5109 11.1 15.0777 10.9143 15.7055 10.8299C16.3003 10.7499 17.0495 10.75 17.948 10.75ZM15.9054 12.3165C15.4439 12.3786 15.2464 12.4858 15.1161 12.6161C14.9858 12.7464 14.8786 12.9439 14.8165 13.4054C14.7516 13.8884 14.75 14.536 14.75 15.5V18.5C14.75 19.464 14.7516 20.1116 14.8165 20.5946C14.8786 21.0561 14.9858 21.2536 15.1161 21.3839C15.2464 21.5142 15.4439 21.6214 15.9054 21.6835C16.3884 21.7484 17.036 21.75 18 21.75C18.964 21.75 19.6116 21.7484 20.0946 21.6835C20.5561 21.6214 20.7536 21.5142 20.8839 21.3839C21.0142 21.2536 21.1214 21.0561 21.1835 20.5946C21.2484 20.1116 21.25 19.464 21.25 18.5V15.5C21.25 14.536 21.2484 13.8884 21.1835 13.4054C21.1214 12.9439 21.0142 12.7464 20.8839 12.6161C20.7536 12.4858 20.5561 12.3786 20.0946 12.3165C19.6116 12.2516 18.964 12.25 18 12.25C17.036 12.25 16.3884 12.2516 15.9054 12.3165ZM16.25 20.5C16.25 20.0858 16.5858 19.75 17 19.75H19C19.4142 19.75 19.75 20.0858 19.75 20.5C19.75 20.9142 19.4142 21.25 19 21.25H17C16.5858 21.25 16.25 20.9142 16.25 20.5Z" fill="#525961"/>
</svg>
