<svg width="29" height="28" viewBox="0 0 29 28" fill="none" xmlns="http://www.w3.org/2000/svg">
<g clip-path="url(#clip0_3634_7272)">
<path d="M23.6582 5.00791C21.2563 2.60604 18.0628 1.2832 14.666 1.2832C11.2692 1.2832 8.07575 2.60604 5.67388 5.00791C3.272 7.40984 1.94922 10.6033 1.94922 14.0001C1.94922 17.3968 3.272 20.5903 5.67388 22.9922C8.0758 25.3941 11.2693 26.7169 14.666 26.7169C18.0628 26.7169 21.2563 25.3941 23.6582 22.9922C26.0601 20.5903 27.3828 17.3968 27.3828 14.0001C27.3828 10.6033 26.0601 7.40984 23.6582 5.00791ZM21.9298 21.2639C19.9896 23.2041 17.4099 24.2727 14.666 24.2727C11.9221 24.2727 9.34248 23.2041 7.40222 21.2639C5.46196 19.3236 4.39342 16.744 4.39342 14.0001C4.39342 11.2562 5.46196 8.67652 7.40222 6.73626C9.34248 4.796 11.9221 3.72746 14.666 3.72746C17.4099 3.72746 19.9896 4.796 21.9298 6.73626C23.87 8.67652 24.9386 11.2562 24.9386 14.0001C24.9386 16.744 23.8701 19.3236 21.9298 21.2639Z" fill="#D6E1EB"/>
<path d="M23.6582 5.00791C21.2563 2.60604 18.0628 1.2832 14.666 1.2832C14.3911 1.2832 14.1177 1.29277 13.8457 1.31C16.9337 1.50534 19.81 2.8004 22.0175 5.00791C24.4194 7.40984 25.7422 10.6033 25.7422 14.0001C25.7422 17.3968 24.4194 20.5903 22.0175 22.9922C19.81 25.1997 16.9337 26.4947 13.8457 26.6901C14.1177 26.7073 14.3911 26.7169 14.666 26.7169C18.0628 26.7169 21.2563 25.3941 23.6582 22.9922C26.06 20.5903 27.3828 17.3968 27.3828 14.0001C27.3828 10.6033 26.06 7.40984 23.6582 5.00791Z" fill="#A4B1BD"/>
<path d="M14.666 2.56632C14.4395 2.56632 14.2559 2.38268 14.2559 2.15616V0.410156C14.2559 0.183641 14.4395 0 14.666 0C14.8925 0 15.0762 0.183641 15.0762 0.410156V2.15616C15.0762 2.38268 14.8925 2.56632 14.666 2.56632Z" fill="#525961"/>
<path d="M14.666 27.9999C14.4395 27.9999 14.2559 27.8163 14.2559 27.5898V25.8438C14.2559 25.6172 14.4395 25.4336 14.666 25.4336C14.8925 25.4336 15.0762 25.6172 15.0762 25.8438V27.5898C15.0762 27.8163 14.8925 27.9999 14.666 27.9999Z" fill="#525961"/>
<path d="M2.82218 14.4102H1.07617C0.849656 14.4102 0.666016 14.2265 0.666016 14C0.666016 13.7735 0.849656 13.5898 1.07617 13.5898H2.82218C3.0487 13.5898 3.23234 13.7735 3.23234 14C3.23234 14.2265 3.0487 14.4102 2.82218 14.4102Z" fill="#525961"/>
<path d="M28.2558 14.4102H26.5098C26.2832 14.4102 26.0996 14.2265 26.0996 14C26.0996 13.7735 26.2832 13.5898 26.5098 13.5898H28.2558C28.4823 13.5898 28.6659 13.7735 28.6659 14C28.6659 14.2265 28.4823 14.4102 28.2558 14.4102Z" fill="#525961"/>
<path d="M7.4137 18.2632C7.31099 18.7205 7.53171 19.1873 7.94187 19.4142C8.95517 19.9747 10.1205 20.2939 11.3603 20.2939C12.6005 20.2939 13.7659 19.9746 14.7794 19.4141C15.1896 19.1872 15.4103 18.7204 15.3076 18.2629C14.9018 16.4568 13.2893 15.1074 11.3607 15.1074C9.43194 15.1075 7.81937 16.457 7.4137 18.2632Z" fill="#CCE4FF"/>
<path d="M14.7798 19.414C15.19 19.1872 15.4107 18.7203 15.308 18.2629C14.9022 16.4568 13.2897 15.1074 11.3611 15.1074C10.8027 15.1074 10.2712 15.2212 9.7874 15.4257C9.10687 16.0636 8.61413 16.8994 8.40238 17.842C8.28201 18.3778 8.54063 18.9248 9.02122 19.1906C10.0612 19.7658 11.2378 20.124 12.49 20.2041C13.3087 20.0726 14.0805 19.8008 14.7798 19.414Z" fill="#99C9FF"/>
<path d="M13.5201 12.4863V13.5103C13.5201 14.7029 12.5532 15.6697 11.3606 15.6697C10.168 15.6697 9.20117 14.7029 9.20117 13.5103V12.4863L10.5403 10.8457H12.1809L13.5201 12.4863Z" fill="#FEE0D4"/>
<path d="M13.5199 12.4863L12.1808 10.8457H10.6196L10.4961 11.0735V12.2732C10.4961 13.6705 11.6288 14.8033 13.0262 14.8033C13.048 14.8033 13.0696 14.8022 13.0914 14.8016C13.3605 14.4415 13.5199 13.9945 13.5199 13.5104V12.4863H13.5199Z" fill="#ECAD9A"/>
<path d="M12.2542 9.60938H10.4671C9.76795 9.60938 9.20117 10.1762 9.20117 10.8753V12.486L11.0311 11.8832C11.706 11.6609 12.4456 11.7629 13.035 12.1596L13.5201 12.486V10.8753C13.5201 10.1762 12.9533 9.60938 12.2542 9.60938Z" fill="#655E68"/>
<path d="M12.254 9.60938H10.4961V12.0594L11.0309 11.8832C11.7058 11.6609 12.4454 11.7629 13.0349 12.1597L13.5199 12.4861L12.3474 9.6132C12.3165 9.61091 12.2855 9.60938 12.254 9.60938Z" fill="#544F57"/>
<path d="M14.027 18.2632C13.9243 18.7205 14.145 19.1873 14.5552 19.4142C15.5685 19.9747 16.7337 20.2939 17.9736 20.2939C19.2138 20.2939 20.3792 19.9746 21.3927 19.4141C21.8029 19.1872 22.0236 18.7204 21.9208 18.2629C21.5151 16.4568 19.9025 15.1074 17.9739 15.1074C16.0452 15.1075 14.4326 16.457 14.027 18.2632Z" fill="#BAE8D0"/>
<path d="M21.9218 18.2629C21.516 16.4568 19.9035 15.1074 17.9749 15.1074C17.6937 15.1074 17.4195 15.1369 17.1546 15.1915C18.7071 15.5114 19.9346 16.7202 20.2812 18.2629C20.3839 18.7203 20.1632 19.1872 19.753 19.414C18.9664 19.8491 18.0879 20.138 17.1543 20.2458C17.4235 20.2769 17.697 20.2938 17.9746 20.2938C19.2147 20.2938 20.3801 19.9745 21.3936 19.414C21.8038 19.1872 22.0245 18.7204 21.9218 18.2629Z" fill="#98DDB8"/>
<path d="M20.1333 12.4863V13.5103C20.1333 14.7029 19.1665 15.6697 17.9739 15.6697C16.7813 15.6697 15.8145 14.7029 15.8145 13.5103V12.4863L17.1536 10.8457H18.7942L20.1333 12.4863Z" fill="#FEE0D4"/>
<path d="M19.6152 10.8457L18.4934 11.666V13.5103C18.4934 14.4125 17.94 15.185 17.1543 15.508C17.4073 15.612 17.6842 15.6697 17.9746 15.6697C19.1672 15.6697 20.1341 14.7029 20.1341 13.5103V12.4863L19.6152 10.8457Z" fill="#ECAD9A"/>
<path d="M18.8674 9.60938H17.0804C16.3812 9.60938 15.8145 10.1762 15.8145 10.8753V12.486L17.6444 11.8832C18.3193 11.6609 19.0589 11.7629 19.6483 12.1596L20.1333 12.486V10.8753C20.1334 10.1762 19.5666 9.60938 18.8674 9.60938Z" fill="#655E68"/>
<path d="M18.8672 9.60938H17.2266C17.9257 9.60938 18.4925 10.1762 18.4925 10.8753V11.7722C18.9005 11.795 19.3005 11.9256 19.6481 12.1596L20.1331 12.486V10.8752C20.1331 10.1762 19.5664 9.60938 18.8672 9.60938Z" fill="#544F57"/>
<path d="M10.043 17.8439C9.92264 18.3797 10.1813 18.9267 10.6618 19.1924C11.8491 19.8491 13.2143 20.2231 14.6671 20.2231C16.12 20.2231 17.4855 19.849 18.6729 19.1923C19.1535 18.9264 19.4121 18.3795 19.2918 17.8436C18.8164 15.7276 16.9271 14.1465 14.6674 14.1465C12.4077 14.1465 10.5183 15.7277 10.043 17.8439Z" fill="#F5A1A1"/>
<path d="M19.2926 17.8436C18.8172 15.7275 16.9279 14.1465 14.6683 14.1465C14.3885 14.1465 14.1144 14.1709 13.848 14.2174C15.7334 14.5464 17.2354 15.9895 17.652 17.8436C17.7724 18.3795 17.5138 18.9264 17.0331 19.1922C16.072 19.7238 14.9941 20.07 13.8477 20.1827C14.1175 20.2092 14.3911 20.223 14.6679 20.223C16.1209 20.223 17.4864 19.849 18.6738 19.1922C19.1544 18.9264 19.413 18.3794 19.2926 17.8436Z" fill="#F07272"/>
<path d="M17.1968 11.0742V12.274C17.1968 13.6713 16.0641 14.804 14.6668 14.804C13.2695 14.804 12.1367 13.6713 12.1367 12.274V11.0742L13.0262 9.43359H16.3074L17.1968 11.0742Z" fill="#FEE0D4"/>
<path d="M16.3066 9.43359H15.5555V12.274C15.5555 13.3841 14.8403 14.3265 13.8457 14.6673C14.1031 14.7555 14.3788 14.804 14.666 14.804C16.0633 14.804 17.1961 13.6713 17.1961 12.274V11.0742L16.3066 9.43359Z" fill="#ECAD9A"/>
<path d="M15.7137 7.70312H13.62C12.8008 7.70312 12.1367 8.3672 12.1367 9.18636V11.0736L14.2807 10.3672C15.0714 10.1068 15.938 10.2263 16.6286 10.6911L17.1968 11.0736V9.18636C17.1968 8.3672 16.5328 7.70312 15.7137 7.70312Z" fill="#655E68"/>
<path d="M15.7129 7.70312H14.0723C14.8914 7.70312 15.5555 8.3672 15.5555 9.18636V10.2679C15.9345 10.3294 16.301 10.4711 16.6279 10.6911L17.1961 11.0736V9.18636C17.1961 8.3672 16.5321 7.70312 15.7129 7.70312Z" fill="#544F57"/>
</g>
<defs>
<clipPath id="clip0_3634_7272">
<rect width="28" height="28" fill="white" transform="translate(0.666016)"/>
</clipPath>
</defs>
</svg>
