<svg width="30" height="28" viewBox="0 0 30 28" fill="none" xmlns="http://www.w3.org/2000/svg">
<path d="M11.5682 27.9997C17.7727 27.9997 22.8024 22.97 22.8024 16.7655C22.8024 10.561 17.7727 5.53125 11.5682 5.53125C5.36372 5.53125 0.333984 10.561 0.333984 16.7655C0.333984 22.97 5.36372 27.9997 11.5682 27.9997Z" fill="#66AEFF"/>
<path d="M11.5685 25.0043C16.1185 25.0043 19.807 21.3158 19.807 16.7658C19.807 12.2158 16.1185 8.52734 11.5685 8.52734C7.01856 8.52734 3.33008 12.2158 3.33008 16.7658C3.33008 21.3158 7.01856 25.0043 11.5685 25.0043Z" fill="#EBF5FC"/>
<path d="M11.5648 15.9447C11.1902 15.9447 10.8867 15.6411 10.8867 15.2666V11.5218C10.8867 11.1473 11.1903 10.8438 11.5648 10.8438C11.9394 10.8438 12.2429 11.1473 12.2429 11.5218V15.2666C12.2429 15.6411 11.9393 15.9447 11.5648 15.9447Z" fill="#A4B1BD"/>
<path d="M15.3137 17.4499H13.0668C12.6922 17.4499 12.3887 17.1463 12.3887 16.7718C12.3887 16.3973 12.6923 16.0938 13.0668 16.0938H15.3137C15.6883 16.0938 15.9918 16.3973 15.9918 16.7718C15.9918 17.1463 15.6882 17.4499 15.3137 17.4499Z" fill="#A4B1BD"/>
<path d="M11.5672 5.53125C11.2166 5.53125 10.8699 5.54819 10.5274 5.57961C16.2443 6.10437 20.7218 10.9117 20.7218 16.7655C20.7218 22.6193 16.2443 27.4266 10.5273 27.9514C10.8698 27.9828 11.2165 27.9997 11.5671 27.9997C17.7716 27.9997 22.8014 22.9699 22.8014 16.7655C22.8014 10.561 17.7717 5.53125 11.5672 5.53125Z" fill="#1886EA"/>
<path d="M11.5664 8.52734C11.2145 8.52734 10.8677 8.54955 10.5273 8.59238C14.5868 9.10327 17.7267 12.5678 17.7267 16.7658C17.7267 20.9638 14.5868 24.4283 10.5273 24.9392C10.8677 24.9821 11.2145 25.0043 11.5664 25.0043C16.1164 25.0043 19.8049 21.3158 19.8049 16.7658C19.8049 12.2159 16.1164 8.52734 11.5664 8.52734Z" fill="#CCE4FF"/>
<path d="M11.5663 18.2615C12.3936 18.2615 13.0642 17.5908 13.0642 16.7636C13.0642 15.9363 12.3936 15.2656 11.5663 15.2656C10.739 15.2656 10.0684 15.9363 10.0684 16.7636C10.0684 17.5908 10.739 18.2615 11.5663 18.2615Z" fill="#FFDD40"/>
<path d="M21.9377 13.1352C25.2785 13.1352 27.9868 10.4269 27.9868 7.08615C27.9868 3.74536 25.2785 1.03711 21.9377 1.03711C18.5969 1.03711 15.8887 3.74536 15.8887 7.08615C15.8887 10.4269 18.5969 13.1352 21.9377 13.1352Z" fill="#F07272"/>
<path d="M23.6994 7.09116L24.3285 6.46206C24.5621 6.2285 24.6933 5.91171 24.6933 5.58139C24.6933 5.25108 24.5621 4.93429 24.3285 4.70072C24.0949 4.46715 23.7782 4.33594 23.4479 4.33594C23.1175 4.33594 22.8007 4.46715 22.5672 4.70072L21.9381 5.32982L21.309 4.70072C21.0741 4.47391 20.7594 4.34845 20.4329 4.35135C20.1064 4.35425 19.794 4.48529 19.5632 4.71625C19.3323 4.9472 19.2014 5.25958 19.1986 5.58612C19.1959 5.91266 19.3214 6.22723 19.5484 6.46206L20.1774 7.09116L19.5484 7.72026C19.4294 7.83512 19.3345 7.97253 19.2692 8.12446C19.2039 8.27639 19.1695 8.4398 19.168 8.60516C19.1665 8.77052 19.198 8.93452 19.2606 9.08759C19.3232 9.24065 19.4156 9.37972 19.5326 9.49668C19.6495 9.61364 19.7885 9.70614 19.9415 9.76879C20.0946 9.83144 20.2586 9.86298 20.4239 9.86158C20.5893 9.86018 20.7527 9.82585 20.9047 9.76061C21.0566 9.69538 21.1941 9.60053 21.309 9.4816L21.9381 8.8525L22.5672 9.4816C22.8007 9.71517 23.1175 9.84639 23.4479 9.84639C23.7782 9.84639 24.0949 9.71517 24.3285 9.4816C24.5621 9.24804 24.6933 8.93125 24.6933 8.60094C24.6933 8.27062 24.5621 7.95383 24.3285 7.72026L23.6994 7.09116Z" fill="#FCFEFF"/>
</svg>
