<svg width="42" height="25" viewBox="0 0 42 25" fill="none" xmlns="http://www.w3.org/2000/svg">
<g clip-path="url(#clip0_3933_16993)">
<path fill-rule="evenodd" clip-rule="evenodd" d="M38.1465 22.0987H3.85742C3.35723 22.0984 2.8777 21.9847 2.52401 21.7826C2.17031 21.5805 1.97133 21.3064 1.9707 21.0206V8.32587H40.0332V21.0206C40.0326 21.3064 39.8336 21.5804 39.4799 21.7825C39.1262 21.9846 38.6467 22.0984 38.1465 22.0987ZM38.1465 1.77734H3.85742C2.83528 1.77808 1.85537 2.01042 1.13261 2.42343C0.409845 2.83644 0.00323383 3.39639 0.00195312 3.98047V21.0206C0.00319051 21.6047 0.409788 22.1646 1.13256 22.5776C1.85533 22.9906 2.83527 23.223 3.85742 23.2237H38.1465C39.1686 23.223 40.1486 22.9906 40.8713 22.5776C41.5941 22.1646 42.0007 21.6047 42.0019 21.0206V3.98061C42.0007 3.39653 41.5941 2.83658 40.8713 2.42357C40.1485 2.01057 39.1686 1.77822 38.1465 1.77748V1.77734ZM16.2747 5.6142H6.00484C5.74376 5.6142 5.49338 5.55494 5.30878 5.44945C5.12417 5.34396 5.02046 5.20089 5.02046 5.0517C5.02046 4.90252 5.12417 4.75944 5.30878 4.65396C5.49338 4.54847 5.74376 4.4892 6.00484 4.4892H16.2751C16.4044 4.4892 16.5324 4.50375 16.6519 4.53202C16.7713 4.56029 16.8798 4.60172 16.9712 4.65396C17.0626 4.70619 17.1351 4.7682 17.1846 4.83644C17.2341 4.90469 17.2595 4.97783 17.2595 5.0517C17.2595 5.12557 17.2341 5.19872 17.1846 5.26696C17.1351 5.33521 17.0626 5.39722 16.9712 5.44945C16.8798 5.50168 16.7713 5.54312 16.6519 5.57139C16.5324 5.59965 16.4044 5.6142 16.2751 5.6142H16.2747Z" fill="#525961"/>
</g>
<defs>
<clipPath id="clip0_3933_16993">
<rect width="42" height="24" fill="white" transform="translate(0 0.5)"/>
</clipPath>
</defs>
</svg>
