<svg width="32" height="25" viewBox="0 0 32 25" fill="none" xmlns="http://www.w3.org/2000/svg">
<g clip-path="url(#clip0_3933_16990)">
<path fill-rule="evenodd" clip-rule="evenodd" d="M29.0635 22.0987H2.93848C2.55737 22.0984 2.19202 21.9847 1.92254 21.7826C1.65306 21.5805 1.50146 21.3064 1.50098 21.0206V8.32587H30.501V21.0206C30.5005 21.3064 30.3489 21.5804 30.0794 21.7825C29.8099 21.9846 29.4446 22.0984 29.0635 22.0987ZM29.0635 1.77734H2.93848C2.1597 1.77808 1.4131 2.01042 0.862428 2.42343C0.311751 2.83644 0.00195234 3.39639 0.000976562 3.98047V21.0206C0.00191933 21.6047 0.311708 22.1646 0.862392 22.5776C1.41308 22.9906 2.15969 23.223 2.93848 23.2237H29.0635C29.8423 23.223 30.5889 22.9906 31.1396 22.5776C31.6902 22.1646 32 21.6047 32.001 21.0206V3.98061C32 3.39653 31.6902 2.83658 31.1395 2.42357C30.5888 2.01057 29.8422 1.77822 29.0635 1.77748V1.77734ZM12.3992 5.6142H4.5746C4.37569 5.6142 4.18492 5.55494 4.04427 5.44945C3.90362 5.34396 3.8246 5.20089 3.8246 5.0517C3.8246 4.90252 3.90362 4.75944 4.04427 4.65396C4.18492 4.54847 4.37569 4.4892 4.5746 4.4892H12.3996C12.4981 4.4892 12.5956 4.50375 12.6866 4.53202C12.7776 4.56029 12.8603 4.60172 12.9299 4.65396C12.9996 4.70619 13.0548 4.7682 13.0925 4.83644C13.1302 4.90469 13.1496 4.97783 13.1496 5.0517C13.1496 5.12557 13.1302 5.19872 13.0925 5.26696C13.0548 5.33521 12.9996 5.39722 12.9299 5.44945C12.8603 5.50168 12.7776 5.54312 12.6866 5.57139C12.5956 5.59965 12.4981 5.6142 12.3996 5.6142H12.3992Z" fill="#525961"/>
</g>
<defs>
<clipPath id="clip0_3933_16990">
<rect width="32" height="24" fill="white" transform="translate(0 0.5)"/>
</clipPath>
</defs>
</svg>
