<svg width="20" height="20" viewBox="0 0 20 20" fill="none" xmlns="http://www.w3.org/2000/svg">
<path d="M11.666 2.29102C13.255 2.29102 14.3839 2.29234 15.2403 2.40748C16.0787 2.5202 16.5618 2.73159 16.9144 3.08427C17.3204 3.49022 17.4971 3.8049 17.595 4.36588C17.7053 4.99818 17.7077 5.90011 17.7077 7.49935C17.7077 7.84453 17.9875 8.12435 18.3327 8.12435C18.6779 8.12435 18.9577 7.84453 18.9577 7.49935L18.9577 7.41909C18.9577 5.91977 18.9578 4.9041 18.8263 4.15101C18.6802 3.31323 18.3687 2.77075 17.7983 2.20039C17.1747 1.57675 16.3839 1.29999 15.4069 1.16863C14.4575 1.04099 13.2445 1.041 11.713 1.04102H11.666C11.3208 1.04102 11.041 1.32084 11.041 1.66602C11.041 2.01119 11.3208 2.29102 11.666 2.29102Z" fill="#FCFEFF"/>
<path d="M1.66602 11.8743C2.0112 11.8743 2.29102 12.1542 2.29102 12.4993C2.29102 14.0986 2.29342 15.0005 2.40376 15.6328C2.50164 16.1938 2.67833 16.5085 3.08427 16.9144C3.43695 17.2671 3.91999 17.4785 4.75839 17.5912C5.61478 17.7064 6.74367 17.7077 8.33269 17.7077C8.67787 17.7077 8.95769 17.9875 8.95769 18.3327C8.95769 18.6779 8.67787 18.9577 8.33269 18.9577H8.28568C6.75421 18.9577 5.54118 18.9577 4.59183 18.8301C3.61482 18.6987 2.82403 18.4219 2.20039 17.7983C1.63003 17.2279 1.31855 16.6855 1.17236 15.8477C1.04095 15.0946 1.04098 14.0789 1.04102 12.5796L1.04102 12.4993C1.04102 12.1542 1.32084 11.8743 1.66602 11.8743Z" fill="#FCFEFF"/>
<path d="M18.3327 11.8743C18.6779 11.8743 18.9577 12.1542 18.9577 12.4993L18.9577 12.5796C18.9577 14.0789 18.9578 15.0946 18.8263 15.8477C18.6802 16.6855 18.3687 17.2279 17.7983 17.7983C17.1747 18.4219 16.3839 18.6987 15.4069 18.8301C14.4575 18.9577 13.2445 18.9577 11.713 18.9577H11.666C11.3208 18.9577 11.041 18.6779 11.041 18.3327C11.041 17.9875 11.3208 17.7077 11.666 17.7077C13.255 17.7077 14.3839 17.7064 15.2403 17.5912C16.0787 17.4785 16.5618 17.2671 16.9144 16.9144C17.3204 16.5085 17.4971 16.1938 17.595 15.6328C17.7053 15.0005 17.7077 14.0986 17.7077 12.4993C17.7077 12.1542 17.9875 11.8743 18.3327 11.8743Z" fill="#FCFEFF"/>
<path d="M8.28567 1.04102H8.33269C8.67787 1.04102 8.95769 1.32084 8.95769 1.66602C8.95769 2.01119 8.67787 2.29102 8.33269 2.29102C6.74367 2.29102 5.61478 2.29234 4.75839 2.40748C3.91999 2.5202 3.43695 2.73159 3.08427 3.08427C2.67833 3.49022 2.50164 3.8049 2.40376 4.36588C2.29342 4.99818 2.29102 5.90011 2.29102 7.49935C2.29102 7.84453 2.0112 8.12435 1.66602 8.12435C1.32084 8.12435 1.04102 7.84453 1.04102 7.49935L1.04102 7.41909C1.04098 5.91979 1.04095 4.9041 1.17236 4.15101C1.31855 3.31323 1.63003 2.77075 2.20039 2.20039C2.82403 1.57675 3.61482 1.29999 4.59183 1.16863C5.54118 1.04099 6.75421 1.041 8.28567 1.04102Z" fill="#FCFEFF"/>
<path d="M9.99935 8.95768C9.42406 8.95768 8.95769 9.42405 8.95769 9.99935C8.95769 10.5746 9.42406 11.041 9.99935 11.041C10.5747 11.041 11.041 10.5746 11.041 9.99935C11.041 9.42405 10.5747 8.95768 9.99935 8.95768Z" fill="#FCFEFF"/>
<path fill-rule="evenodd" clip-rule="evenodd" d="M4.90971 11.7158C4.41392 11.1407 4.16602 10.8532 4.16602 9.99935C4.16602 9.14551 4.41392 8.85796 4.90971 8.28286C5.89967 7.13454 7.55992 5.83268 9.99935 5.83268C12.4388 5.83268 14.099 7.13454 15.089 8.28286C15.5848 8.85796 15.8327 9.14551 15.8327 9.99935C15.8327 10.8532 15.5848 11.1407 15.089 11.7158C14.099 12.8642 12.4388 14.166 9.99935 14.166C7.55992 14.166 5.89967 12.8642 4.90971 11.7158ZM7.70769 9.99935C7.70769 8.7337 8.7337 7.70768 9.99935 7.70768C11.265 7.70768 12.291 8.7337 12.291 9.99935C12.291 11.265 11.265 12.291 9.99935 12.291C8.7337 12.291 7.70769 11.265 7.70769 9.99935Z" fill="#FCFEFF"/>
</svg>
