<svg width="24" height="25" viewBox="0 0 24 25" fill="none" xmlns="http://www.w3.org/2000/svg">
<path d="M12 13.75C12.4142 13.75 12.75 14.0858 12.75 14.5V18.5C12.75 18.9142 12.4142 19.25 12 19.25C11.5858 19.25 11.25 18.9142 11.25 18.5V14.5C11.25 14.0858 11.5858 13.75 12 13.75Z" fill="#525961"/>
<path fill-rule="evenodd" clip-rule="evenodd" d="M5.25 9.80277V8.5C5.25 4.77208 8.27208 1.75 12 1.75C15.7279 1.75 18.75 4.77208 18.75 8.5V9.80277C18.9768 9.81872 19.1906 9.83948 19.3918 9.86652C20.2919 9.98754 21.0497 10.2464 21.6517 10.8483C22.2536 11.4503 22.5125 12.2081 22.6335 13.1082C22.75 13.9752 22.75 15.0775 22.75 16.4451V16.5549C22.75 17.9225 22.75 19.0248 22.6335 19.8918C22.5125 20.7919 22.2536 21.5497 21.6517 22.1516C21.0497 22.7536 20.2919 23.0125 19.3918 23.1335C18.5248 23.25 17.4225 23.25 16.0549 23.25H7.94513C6.57754 23.25 5.47522 23.25 4.60825 23.1335C3.70814 23.0125 2.95027 22.7536 2.34835 22.1516C1.74643 21.5497 1.48754 20.7919 1.36652 19.8918C1.24996 19.0248 1.24998 17.9225 1.25 16.5549V16.4451C1.24998 15.0775 1.24996 13.9752 1.36652 13.1082C1.48754 12.2081 1.74643 11.4503 2.34835 10.8483C2.95027 10.2464 3.70814 9.98754 4.60825 9.86652C4.80938 9.83948 5.02317 9.81872 5.25 9.80277ZM6.75 8.5C6.75 5.60051 9.10051 3.25 12 3.25C14.8995 3.25 17.25 5.60051 17.25 8.5V9.75344C16.8765 9.74999 16.4784 9.74999 16.0549 9.75H7.94513C7.52161 9.74999 7.12353 9.74999 6.75 9.75344V8.5ZM4.80812 11.3531C4.07435 11.4518 3.68577 11.6322 3.40901 11.909C3.13225 12.1858 2.9518 12.5743 2.85315 13.3081C2.75159 14.0635 2.75 15.0646 2.75 16.5C2.75 17.9354 2.75159 18.9365 2.85315 19.6919C2.9518 20.4257 3.13225 20.8142 3.40901 21.091C3.68577 21.3678 4.07435 21.5482 4.80812 21.6469C5.56347 21.7484 6.56459 21.75 8 21.75H16C17.4354 21.75 18.4365 21.7484 19.1919 21.6469C19.9257 21.5482 20.3142 21.3678 20.591 21.091C20.8678 20.8142 21.0482 20.4257 21.1469 19.6919C21.2484 18.9365 21.25 17.9354 21.25 16.5C21.25 15.0646 21.2484 14.0635 21.1469 13.3081C21.0482 12.5743 20.8678 12.1858 20.591 11.909C20.3142 11.6322 19.9257 11.4518 19.1919 11.3531C18.4365 11.2516 17.4354 11.25 16 11.25H8C6.56459 11.25 5.56347 11.2516 4.80812 11.3531Z" fill="#525961"/>
</svg>
