<svg width="24" height="25" viewBox="0 0 24 25" fill="none" xmlns="http://www.w3.org/2000/svg">
<path fill-rule="evenodd" clip-rule="evenodd" d="M5.57801 5.84262C3.83444 7.52492 2.75 9.88581 2.75 12.5C2.75 17.6086 6.89137 21.75 12 21.75C12.1275 21.75 12.2544 21.7474 12.3807 21.7423C12.1752 20.8307 12.1474 19.6051 12.774 18.4243C13.4261 17.1955 14.7762 16.6622 15.7689 16.4182C16.289 16.2904 16.7708 16.2273 17.1211 16.1959C17.2972 16.1801 17.4423 16.1721 17.5452 16.168C17.5966 16.166 17.6377 16.1649 17.667 16.1644L17.7019 16.1639L17.7104 16.1638C19.3829 16.1464 20.1364 15.6025 20.5363 15.0836C20.8779 14.6404 21.0069 14.1971 21.1377 13.7475C21.1543 13.6903 21.171 13.633 21.1881 13.5756C21.229 13.2227 21.25 12.8638 21.25 12.5C21.25 9.97592 20.239 7.68797 18.5999 6.01898C18.5912 6.05304 18.5823 6.0866 18.5732 6.1196C18.4104 6.71256 18.1475 7.32114 17.8618 7.75475C17.6059 8.14313 17.1095 8.53492 16.6975 8.83094C16.4263 9.02578 16.144 9.1913 15.8879 9.33888C15.857 9.35672 15.8265 9.37428 15.7963 9.3916C15.5683 9.52278 15.3631 9.64077 15.1656 9.77123C14.7338 10.0565 14.3997 10.3636 14.1748 10.8273C14.0961 10.9897 14.0936 11.1481 14.1402 11.3177C14.2148 11.5892 14.2656 11.8946 14.2664 12.206C14.2681 12.855 13.9375 13.3817 13.5126 13.7241C13.0928 14.0625 12.5441 14.256 11.9918 14.25C9.53653 14.2231 8.02692 12.2306 7.82782 10.0145C7.74861 9.13293 7.36212 8.24121 6.87411 7.46185C6.42593 6.7461 5.92094 6.17095 5.57801 5.84262ZM6.74505 4.88662C7.1601 5.30462 7.68084 5.92381 8.14544 6.66579C8.70296 7.55616 9.21374 8.67759 9.3218 9.88025C9.47276 11.5605 10.5349 12.734 12.0082 12.75C12.2108 12.7523 12.4212 12.6772 12.5714 12.5562C12.7165 12.4393 12.7667 12.3158 12.7664 12.2099C12.766 12.0544 12.7398 11.8825 12.6937 11.7148C12.5726 11.2736 12.5553 10.7292 12.8252 10.1727C13.2102 9.37891 13.7808 8.88838 14.3388 8.51971C14.5779 8.36171 14.826 8.21918 15.0498 8.09055C15.08 8.07322 15.1097 8.05613 15.1389 8.0393C15.3941 7.89218 15.6182 7.75939 15.8222 7.61277C16.2533 7.30305 16.526 7.05581 16.6092 6.92947C16.7917 6.65255 16.9969 6.19533 17.1267 5.7225C17.2296 5.34787 17.2581 5.06036 17.2485 4.88216C15.7573 3.85281 13.949 3.25 12 3.25C10.0481 3.25 8.23748 3.85455 6.74505 4.88662ZM22.6792 13.7403C22.726 13.3333 22.75 12.9195 22.75 12.5C22.75 6.56294 17.9371 1.75 12 1.75C6.06294 1.75 1.25 6.56294 1.25 12.5C1.25 18.4371 6.06294 23.25 12 23.25C17.4604 23.25 21.9699 19.1789 22.6588 13.9064C22.6771 13.8429 22.6929 13.79 22.7071 13.7501L22.6792 13.7403ZM19.9047 17.3066C19.3091 17.5249 18.5912 17.6547 17.7261 17.6638L17.7182 17.6638V17.6638L17.7156 17.6638L17.695 17.6641C17.6755 17.6645 17.6449 17.6652 17.6044 17.6668C17.5233 17.6701 17.4034 17.6766 17.2552 17.6899C16.9571 17.7166 16.5537 17.77 16.1269 17.8749C15.2257 18.0964 14.435 18.4942 14.099 19.1274C13.6435 19.9857 13.7085 20.9196 13.8784 21.5592C16.4274 21.0334 18.5931 19.4589 19.9047 17.3066Z" fill="#525961"/>
</svg>
