<svg width="24" height="25" viewBox="0 0 24 25" fill="none" xmlns="http://www.w3.org/2000/svg">
<path fill-rule="evenodd" clip-rule="evenodd" d="M12 3.25C6.89137 3.25 2.75 7.39137 2.75 12.5C2.75 17.6086 6.89137 21.75 12 21.75C17.1086 21.75 21.25 17.6086 21.25 12.5C21.25 7.39137 17.1086 3.25 12 3.25ZM1.25 12.5C1.25 6.56294 6.06294 1.75 12 1.75C17.9371 1.75 22.75 6.56294 22.75 12.5C22.75 18.4371 17.9371 23.25 12 23.25C6.06294 23.25 1.25 18.4371 1.25 12.5ZM8.39747 16.0534C8.64413 15.7206 9.11385 15.6508 9.44661 15.8975C10.175 16.4373 11.0541 16.75 12 16.75C12.9459 16.75 13.825 16.4373 14.5534 15.8975C14.8862 15.6508 15.3559 15.7206 15.6025 16.0534C15.8492 16.3862 15.7794 16.8559 15.4466 17.1025C14.4742 17.8233 13.285 18.25 12 18.25C10.715 18.25 9.5258 17.8233 8.55339 17.1025C8.22062 16.8559 8.15082 16.3862 8.39747 16.0534Z" fill="#5C646D"/>
<path d="M16 11C16 11.8284 15.5523 12.5 15 12.5C14.4477 12.5 14 11.8284 14 11C14 10.1716 14.4477 9.5 15 9.5C15.5523 9.5 16 10.1716 16 11Z" fill="#5C646D"/>
<path d="M10 11C10 11.8284 9.55229 12.5 9 12.5C8.44772 12.5 8 11.8284 8 11C8 10.1716 8.44772 9.5 9 9.5C9.55229 9.5 10 10.1716 10 11Z" fill="#5C646D"/>
</svg>
