<svg width="20" height="20" viewBox="0 0 20 20" fill="none" xmlns="http://www.w3.org/2000/svg">
<path fill-rule="evenodd" clip-rule="evenodd" d="M17.1123 17.1123C18.3327 15.8919 18.3327 13.9277 18.3327 9.99935C18.3327 9.7148 18.3327 9.57252 18.3201 9.42785C18.2612 8.75342 17.9877 8.09316 17.5524 7.57463C17.4591 7.4634 17.356 7.36032 17.1498 7.15416L12.8445 2.84888C12.6384 2.64273 12.5353 2.53964 12.4241 2.44628C11.9055 2.01101 11.2453 1.73752 10.5708 1.67864C10.4262 1.66602 10.2839 1.66602 9.99935 1.66602C6.07098 1.66602 4.10679 1.66602 2.8864 2.8864C1.66602 4.10679 1.66602 6.07098 1.66602 9.99935C1.66602 13.9277 1.66602 15.8919 2.8864 17.1123C3.45643 17.6823 4.18874 17.9861 5.20768 18.148L5.20768 17.456C5.20766 16.7073 5.20764 16.0829 5.27428 15.5873C5.34461 15.0641 5.49934 14.5918 5.8789 14.2122C6.25845 13.8327 6.73079 13.6779 7.25395 13.6076C7.7496 13.541 8.37395 13.541 9.12268 13.541H10.876C11.6247 13.541 12.2491 13.541 12.7447 13.6076C13.2679 13.6779 13.7402 13.8327 14.1198 14.2122C14.4994 14.5918 14.6541 15.0641 14.7244 15.5873C14.7911 16.0829 14.791 16.7073 14.791 17.456L14.791 18.148C15.81 17.9861 16.5423 17.6823 17.1123 17.1123ZM5.20768 6.66602C5.20768 6.32084 5.4875 6.04102 5.83268 6.04102H10.8327C11.1779 6.04102 11.4577 6.32084 11.4577 6.66602C11.4577 7.01119 11.1779 7.29102 10.8327 7.29102H5.83268C5.4875 7.29102 5.20768 7.01119 5.20768 6.66602Z" fill="#525961"/>
<path d="M13.4856 15.7538C13.5397 16.1564 13.541 16.696 13.541 17.4993V18.2754C12.5779 18.3327 11.4164 18.3327 9.99935 18.3327C8.58231 18.3327 7.42085 18.3327 6.45768 18.2754V17.4993C6.45768 16.696 6.45901 16.1564 6.51313 15.7538C6.56483 15.3693 6.65418 15.2047 6.76278 15.0961C6.87138 14.9875 7.03596 14.8982 7.42051 14.8465C7.82304 14.7923 8.36267 14.791 9.16602 14.791H10.8327C11.636 14.791 12.1757 14.7923 12.5782 14.8465C12.9627 14.8982 13.1273 14.9875 13.2359 15.0961C13.3445 15.2047 13.4339 15.3693 13.4856 15.7538Z" fill="#525961"/>
</svg>
