<svg width="28" height="28" viewBox="0 0 28 28" fill="none" xmlns="http://www.w3.org/2000/svg">
<g clip-path="url(#clip0_3634_7178)">
<path d="M13.4664 23.3329H2.80019C1.76927 23.3329 0.933594 22.4972 0.933594 21.4663V19.5996H15.2594L13.4664 23.3329Z" fill="#CCE4FF"/>
<path d="M25.202 8.39913V16.2412V21.4657H2.80019C1.76927 21.4657 0.933594 20.63 0.933594 19.5991V8.39913L14.0012 3.73242L25.202 8.39913Z" fill="#EBF5FC"/>
<path d="M4.22993 12.1342H3.23828C2.99667 12.1342 2.80078 11.9383 2.80078 11.6967V10.7051C2.80078 10.4635 2.99667 10.2676 3.23828 10.2676H4.22993C4.47154 10.2676 4.66743 10.4635 4.66743 10.7051V11.6967C4.66743 11.9383 4.47154 12.1342 4.22993 12.1342Z" fill="#A4B1BD"/>
<path d="M7.96235 12.1342H6.9707C6.72909 12.1342 6.5332 11.9383 6.5332 11.6967V10.7051C6.5332 10.4635 6.72909 10.2676 6.9707 10.2676H7.96235C8.20396 10.2676 8.39985 10.4635 8.39985 10.7051V11.6967C8.39985 11.9383 8.20396 12.1342 7.96235 12.1342Z" fill="#A4B1BD"/>
<path d="M11.6967 12.1342H10.7051C10.4635 12.1342 10.2676 11.9383 10.2676 11.6967V10.7051C10.2676 10.4635 10.4635 10.2676 10.7051 10.2676H11.6967C11.9383 10.2676 12.1342 10.4635 12.1342 10.7051V11.6967C12.1342 11.9383 11.9384 12.1342 11.6967 12.1342Z" fill="#A4B1BD"/>
<path d="M15.4291 12.1342H14.4375C14.1959 12.1342 14 11.9383 14 11.6967V10.7051C14 10.4635 14.1959 10.2676 14.4375 10.2676H15.4291C15.6708 10.2676 15.8666 10.4635 15.8666 10.7051V11.6967C15.8666 11.9383 15.6708 12.1342 15.4291 12.1342Z" fill="#A4B1BD"/>
<path d="M19.1635 12.1342H18.1719C17.9303 12.1342 17.7344 11.9383 17.7344 11.6967V10.7051C17.7344 10.4635 17.9303 10.2676 18.1719 10.2676H19.1635C19.4051 10.2676 19.601 10.4635 19.601 10.7051V11.6967C19.601 11.9383 19.4052 12.1342 19.1635 12.1342Z" fill="#A4B1BD"/>
<path d="M22.8959 12.1342H21.9043C21.6627 12.1342 21.4668 11.9383 21.4668 11.6967V10.7051C21.4668 10.4635 21.6627 10.2676 21.9043 10.2676H22.8959C23.1376 10.2676 23.3334 10.4635 23.3334 10.7051V11.6967C23.3334 11.9383 23.1376 12.1342 22.8959 12.1342Z" fill="#A4B1BD"/>
<path d="M4.22993 15.8666H3.23828C2.99667 15.8666 2.80078 15.6708 2.80078 15.4291V14.4375C2.80078 14.1959 2.99667 14 3.23828 14H4.22993C4.47154 14 4.66743 14.1959 4.66743 14.4375V15.4291C4.66743 15.6708 4.47154 15.8666 4.22993 15.8666Z" fill="#A4B1BD"/>
<path d="M7.96235 15.8666H6.9707C6.72909 15.8666 6.5332 15.6708 6.5332 15.4291V14.4375C6.5332 14.1959 6.72909 14 6.9707 14H7.96235C8.20396 14 8.39985 14.1959 8.39985 14.4375V15.4291C8.39985 15.6708 8.20396 15.8666 7.96235 15.8666Z" fill="#A4B1BD"/>
<path d="M11.6967 15.8666H10.7051C10.4635 15.8666 10.2676 15.6708 10.2676 15.4291V14.4375C10.2676 14.1959 10.4635 14 10.7051 14H11.6967C11.9383 14 12.1342 14.1959 12.1342 14.4375V15.4291C12.1342 15.6708 11.9384 15.8666 11.6967 15.8666Z" fill="#A4B1BD"/>
<path d="M15.8666 15.8666V14.4666C15.8666 14.2089 15.6577 14 15.4 14H14.4666C14.2089 14 14 14.2089 14 14.4666V15.4C14 15.6577 14.209 15.8666 14.4666 15.8666H15.8666Z" fill="#A4B1BD"/>
<path d="M4.22993 19.601H3.23828C2.99667 19.601 2.80078 19.4051 2.80078 19.1635V18.1719C2.80078 17.9303 2.99667 17.7344 3.23828 17.7344H4.22993C4.47154 17.7344 4.66743 17.9303 4.66743 18.1719V19.1635C4.66743 19.4051 4.47154 19.601 4.22993 19.601Z" fill="#A4B1BD"/>
<path d="M7.96235 19.601H6.9707C6.72909 19.601 6.5332 19.4051 6.5332 19.1635V18.1719C6.5332 17.9303 6.72909 17.7344 6.9707 17.7344H7.96235C8.20396 17.7344 8.39985 17.9303 8.39985 18.1719V19.1635C8.39985 19.4051 8.20396 19.601 7.96235 19.601Z" fill="#A4B1BD"/>
<path d="M11.6967 19.601H10.7051C10.4635 19.601 10.2676 19.4051 10.2676 19.1635V18.1719C10.2676 17.9303 10.4635 17.7344 10.7051 17.7344H11.6967C11.9383 17.7344 12.1342 17.9303 12.1342 18.1719V19.1635C12.1342 19.4051 11.9384 19.601 11.6967 19.601Z" fill="#A4B1BD"/>
<path d="M22.8825 10.2676H21.9172C21.8588 10.2676 21.8032 10.2791 21.752 10.2992C21.919 10.3652 22.0374 10.5277 22.0374 10.7183V11.6835C22.0374 11.874 21.919 12.0366 21.752 12.1025C21.8032 12.1227 21.8588 12.1342 21.9172 12.1342H22.8825C23.1314 12.1342 23.3332 11.9324 23.3332 11.6835V10.7183C23.3331 10.4694 23.1313 10.2676 22.8825 10.2676Z" fill="#7D838A"/>
<path d="M19.15 10.2676H18.1848C18.1264 10.2676 18.0708 10.2791 18.0195 10.2992C18.1866 10.3652 18.3049 10.5277 18.3049 10.7183V11.6835C18.3049 11.874 18.1865 12.0366 18.0195 12.1025C18.0708 12.1227 18.1264 12.1342 18.1848 12.1342H19.15C19.399 12.1342 19.6007 11.9324 19.6007 11.6835V10.7183C19.6007 10.4694 19.399 10.2676 19.15 10.2676Z" fill="#7D838A"/>
<path d="M15.4176 10.2676H14.4524C14.394 10.2676 14.3384 10.2791 14.2871 10.2992C14.4542 10.3652 14.5726 10.5277 14.5726 10.7183V11.6835C14.5726 11.874 14.4542 12.0366 14.2871 12.1025C14.3384 12.1227 14.394 12.1342 14.4524 12.1342H15.4176C15.6665 12.1342 15.8683 11.9324 15.8683 11.6835V10.7183C15.8683 10.4694 15.6665 10.2676 15.4176 10.2676Z" fill="#7D838A"/>
<path d="M11.6832 10.2676H10.718C10.6596 10.2676 10.604 10.2791 10.5527 10.2992C10.7198 10.3652 10.8382 10.5277 10.8382 10.7183V11.6835C10.8382 11.874 10.7198 12.0366 10.5527 12.1025C10.604 12.1227 10.6596 12.1342 10.718 12.1342H11.6832C11.9322 12.1342 12.134 11.9324 12.134 11.6835V10.7183C12.1339 10.4694 11.9322 10.2676 11.6832 10.2676Z" fill="#7D838A"/>
<path d="M7.95081 10.2676H6.98558C6.92717 10.2676 6.87155 10.2791 6.82031 10.2992C6.98738 10.3652 7.10573 10.5277 7.10573 10.7183V11.6835C7.10573 11.874 6.98733 12.0366 6.82031 12.1025C6.87155 12.1227 6.92717 12.1342 6.98558 12.1342H7.95081C8.19975 12.1342 8.40155 11.9324 8.40155 11.6835V10.7183C8.40155 10.4694 8.19975 10.2676 7.95081 10.2676Z" fill="#7D838A"/>
<path d="M4.21644 10.2676H3.2512C3.1928 10.2676 3.13718 10.2791 3.08594 10.2992C3.25301 10.3652 3.37141 10.5277 3.37141 10.7183V11.6835C3.37141 11.874 3.25301 12.0366 3.08594 12.1025C3.13718 12.1227 3.1928 12.1342 3.2512 12.1342H4.21644C4.46538 12.1342 4.66717 11.9324 4.66717 11.6835V10.7183C4.66712 10.4694 4.46532 10.2676 4.21644 10.2676Z" fill="#7D838A"/>
<path d="M4.21644 14H3.2512C3.1928 14 3.13718 14.0115 3.08594 14.0317C3.25301 14.0976 3.37141 14.2601 3.37141 14.4507V15.416C3.37141 15.6065 3.25301 15.769 3.08594 15.835C3.13718 15.8552 3.1928 15.8667 3.2512 15.8667H4.21644C4.46538 15.8667 4.66717 15.6649 4.66717 15.416V14.4507C4.66712 14.2018 4.46532 14 4.21644 14Z" fill="#7D838A"/>
<path d="M4.21644 17.7324H3.2512C3.1928 17.7324 3.13718 17.7439 3.08594 17.7641C3.25301 17.83 3.37141 17.9926 3.37141 18.1831V19.1484C3.37141 19.3389 3.25301 19.5015 3.08594 19.5674C3.13718 19.5876 3.1928 19.5991 3.2512 19.5991H4.21644C4.46538 19.5991 4.66717 19.3973 4.66717 19.1484V18.1832C4.66712 17.9342 4.46532 17.7324 4.21644 17.7324Z" fill="#7D838A"/>
<path d="M7.95081 14H6.98558C6.92717 14 6.87155 14.0115 6.82031 14.0317C6.98738 14.0976 7.10573 14.2601 7.10573 14.4507V15.416C7.10573 15.6065 6.98733 15.769 6.82031 15.835C6.87155 15.8552 6.92717 15.8667 6.98558 15.8667H7.95081C8.19975 15.8667 8.40155 15.6649 8.40155 15.416V14.4507C8.40155 14.2018 8.19975 14 7.95081 14Z" fill="#7D838A"/>
<path d="M7.95081 17.7324H6.98558C6.92717 17.7324 6.87155 17.7439 6.82031 17.7641C6.98738 17.83 7.10573 17.9926 7.10573 18.1831V19.1484C7.10573 19.3389 6.98733 19.5015 6.82031 19.5674C6.87155 19.5876 6.92717 19.5991 6.98558 19.5991H7.95081C8.19975 19.5991 8.40155 19.3973 8.40155 19.1484V18.1832C8.40155 17.9342 8.19975 17.7324 7.95081 17.7324Z" fill="#7D838A"/>
<path d="M11.6832 14H10.718C10.6596 14 10.604 14.0115 10.5527 14.0317C10.7198 14.0976 10.8382 14.2601 10.8382 14.4507V15.416C10.8382 15.6065 10.7198 15.769 10.5527 15.835C10.604 15.8552 10.6596 15.8667 10.718 15.8667H11.6832C11.9322 15.8667 12.134 15.6649 12.134 15.416V14.4507C12.1339 14.2018 11.9322 14 11.6832 14Z" fill="#7D838A"/>
<path d="M15.8683 15.8666V14.4507C15.8683 14.2017 15.6665 14 15.4176 14H14.4524C14.394 14 14.3384 14.0115 14.2871 14.0317C14.4542 14.0976 14.5726 14.2601 14.5726 14.4507V15.416C14.5726 15.6065 14.4542 15.769 14.2871 15.835C14.3384 15.8552 14.394 15.8667 14.4524 15.8667H15.8683V15.8666Z" fill="#7D838A"/>
<path d="M11.6832 17.7324H10.718C10.6596 17.7324 10.604 17.7439 10.5527 17.7641C10.7198 17.83 10.8382 17.9926 10.8382 18.1831V19.1484C10.8382 19.3389 10.7198 19.5015 10.5527 19.5674C10.604 19.5876 10.6596 19.5991 10.718 19.5991H11.6832C11.9322 19.5991 12.134 19.3973 12.134 19.1484V18.1832C12.1339 17.9342 11.9322 17.7324 11.6832 17.7324Z" fill="#7D838A"/>
<path d="M23.9062 7.85938V16.2417V21.4663H25.2029V16.2417V8.39963L23.9062 7.85938Z" fill="#CCE4FF"/>
<path d="M25.202 8.40048V3.73378C25.202 2.70287 24.3663 1.86719 23.3355 1.86719H2.80019C1.76927 1.86719 0.933594 2.70287 0.933594 3.73378V8.40048H25.202Z" fill="#FDC1A9"/>
<path d="M6.81524 4.15558H5.60025C5.36684 4.15558 5.17773 3.96641 5.17773 3.73306C5.17773 3.49971 5.3669 3.31055 5.60025 3.31055H6.81524C7.04865 3.31055 7.23776 3.49971 7.23776 3.73306C7.23776 3.96641 7.04859 4.15558 6.81524 4.15558Z" fill="#FB6428"/>
<path d="M9.79962 4.15558H8.58462C8.35122 4.15558 8.16211 3.96641 8.16211 3.73306C8.16211 3.49971 8.35127 3.31055 8.58462 3.31055H9.79962C10.033 3.31055 10.2221 3.49971 10.2221 3.73306C10.2221 3.96641 10.033 4.15558 9.79962 4.15558Z" fill="#FB6428"/>
<path d="M17.5497 4.15558H16.3346C16.1012 4.15558 15.9121 3.96641 15.9121 3.73306C15.9121 3.49971 16.1013 3.31055 16.3346 3.31055H17.5497C17.7831 3.31055 17.9722 3.49971 17.9722 3.73306C17.9722 3.96641 17.7831 4.15558 17.5497 4.15558Z" fill="#FB6428"/>
<path d="M20.534 4.15558H19.319C19.0856 4.15558 18.8965 3.96641 18.8965 3.73306C18.8965 3.49971 19.0856 3.31055 19.319 3.31055H20.534C20.7675 3.31055 20.9566 3.49971 20.9566 3.73306C20.9566 3.96641 20.7674 4.15558 20.534 4.15558Z" fill="#FB6428"/>
<path d="M8.8665 3.5C8.8665 4.14433 8.34418 4.66665 7.69985 4.66665C7.05552 4.66665 6.5332 4.14433 6.5332 3.5V1.16665C6.53315 0.52232 7.05547 0 7.6998 0C8.34412 0 8.86644 0.52232 8.86644 1.16665V3.5H8.8665Z" fill="#EBF5FC"/>
<path d="M19.6009 3.5C19.6009 4.14433 19.0786 4.66665 18.4343 4.66665C17.79 4.66665 17.2676 4.14433 17.2676 3.5V1.16665C17.2676 0.52232 17.7899 0 18.4342 0C19.0786 0 19.6009 0.52232 19.6009 1.16665V3.5H19.6009Z" fill="#EBF5FC"/>
<path d="M18.4344 0C18.1949 0 17.9724 0.0724063 17.7871 0.196219C18.1002 0.405453 18.3065 0.761852 18.3065 1.1667V3.5C18.3065 3.9048 18.1002 4.26125 17.7871 4.47048C17.9723 4.59424 18.1949 4.6667 18.4344 4.6667C19.0787 4.6667 19.601 4.14438 19.601 3.50005V1.16665C19.6011 0.52232 19.0788 0 18.4344 0Z" fill="#D3DCFB"/>
<path d="M7.70002 0C7.46048 0 7.23802 0.0724063 7.05273 0.196219C7.36582 0.405453 7.57216 0.761852 7.57216 1.1667V3.5C7.57216 3.9048 7.36582 4.26125 7.05273 4.47048C7.23796 4.59424 7.46048 4.6667 7.70002 4.6667C8.34434 4.6667 8.86666 4.14438 8.86666 3.50005V1.16665C8.86672 0.52232 8.3444 0 7.70002 0Z" fill="#D3DCFB"/>
<path d="M23.3353 1.86719H22.0391C23.07 1.86719 23.9057 2.70287 23.9057 3.73378V8.40054H25.2019V3.73384C25.2019 2.70292 24.3662 1.86719 23.3353 1.86719Z" fill="#FB6428"/>
<path d="M0.933594 6.11133H25.2021V6.95641H0.933594V6.11133Z" fill="#FB6428"/>
<path d="M20.0684 28C23.9344 28 27.0684 24.866 27.0684 21C27.0684 17.134 23.9344 14 20.0684 14C16.2024 14 13.0684 17.134 13.0684 21C13.0684 24.866 16.2024 28 20.0684 28Z" fill="#66AEFF"/>
<path d="M20.0689 26.1339C22.904 26.1339 25.2022 23.8356 25.2022 21.0005C25.2022 18.1655 22.904 15.8672 20.0689 15.8672C17.2338 15.8672 14.9355 18.1655 14.9355 21.0005C14.9355 23.8356 17.2338 26.1339 20.0689 26.1339Z" fill="#EBF5FC"/>
<path d="M20.067 20.4889C19.8336 20.4889 19.6445 20.2998 19.6445 20.0664V17.7331C19.6445 17.4997 19.8337 17.3105 20.067 17.3105C20.3005 17.3105 20.4896 17.4997 20.4896 17.7331V20.0664C20.4896 20.2998 20.3004 20.4889 20.067 20.4889Z" fill="#A4B1BD"/>
<path d="M22.4007 21.4232H21.0006C20.7672 21.4232 20.5781 21.234 20.5781 21.0006C20.5781 20.7673 20.7673 20.5781 21.0006 20.5781H22.4007C22.6341 20.5781 22.8232 20.7673 22.8232 21.0006C22.8232 21.234 22.634 21.4232 22.4007 21.4232Z" fill="#A4B1BD"/>
<path d="M20.0679 14C19.8494 14 19.6334 14.0106 19.42 14.0301C22.9822 14.3571 25.772 17.3525 25.772 21C25.772 24.6475 22.9821 27.6429 19.4199 27.9699C19.6333 27.9894 19.8493 28 20.0678 28C23.9338 28 27.0678 24.866 27.0678 21C27.0678 17.134 23.9338 14 20.0679 14Z" fill="#1886EA"/>
<path d="M20.0674 15.8672C19.8481 15.8672 19.632 15.881 19.4199 15.9077C21.9493 16.226 23.9058 18.3848 23.9058 21.0005C23.9058 23.6163 21.9493 25.775 19.4199 26.0934C19.632 26.1201 19.8481 26.1339 20.0674 26.1339C22.9024 26.1339 25.2007 23.8356 25.2007 21.0005C25.2007 18.1655 22.9024 15.8672 20.0674 15.8672Z" fill="#CCE4FF"/>
<path d="M20.0681 21.9331C20.5836 21.9331 21.0015 21.5152 21.0015 20.9998C21.0015 20.4843 20.5836 20.0664 20.0681 20.0664C19.5526 20.0664 19.1348 20.4843 19.1348 20.9998C19.1348 21.5152 19.5526 21.9331 20.0681 21.9331Z" fill="#FFDD40"/>
</g>
<defs>
<clipPath id="clip0_3634_7178">
<rect width="28" height="28" fill="white"/>
</clipPath>
</defs>
</svg>
