<svg width="24" height="25" viewBox="0 0 24 25" fill="none" xmlns="http://www.w3.org/2000/svg">
<g clip-path="url(#clip0_3933_16987)">
<path fill-rule="evenodd" clip-rule="evenodd" d="M21.7979 22.0987H2.2041C1.91828 22.0984 1.64426 21.9847 1.44215 21.7826C1.24004 21.5805 1.12634 21.3064 1.12598 21.0206V8.32587H22.876V21.0206C22.8756 21.3064 22.7619 21.5804 22.5598 21.7825C22.3577 21.9846 22.0837 22.0984 21.7979 22.0987ZM21.7979 1.77734H2.2041C1.62002 1.77808 1.06007 2.01042 0.647065 2.42343C0.234058 2.83644 0.00170839 3.39639 0.000976562 3.98047V21.0206C0.00168364 21.6047 0.234025 22.1646 0.647038 22.5776C1.06005 22.9906 1.62001 23.223 2.2041 23.2237H21.7979C22.3819 23.223 22.9419 22.9906 23.3549 22.5776C23.7679 22.1646 24.0003 21.6047 24.001 21.0206V3.98061C24.0002 3.39653 23.7679 2.83658 23.3549 2.42357C22.9419 2.01057 22.3819 1.77822 21.7979 1.77748V1.77734ZM9.29966 5.6142H3.4312C3.28201 5.6142 3.13894 5.55494 3.03345 5.44945C2.92796 5.34396 2.8687 5.20089 2.8687 5.0517C2.8687 4.90252 2.92796 4.75944 3.03345 4.65396C3.13894 4.54847 3.28201 4.4892 3.4312 4.4892H9.29994C9.37381 4.4892 9.44696 4.50375 9.5152 4.53202C9.58345 4.56029 9.64546 4.60172 9.69769 4.65396C9.74993 4.70619 9.79136 4.7682 9.81963 4.83644C9.8479 4.90469 9.86244 4.97783 9.86244 5.0517C9.86244 5.12557 9.8479 5.19872 9.81963 5.26696C9.79136 5.33521 9.74993 5.39722 9.69769 5.44945C9.64546 5.50168 9.58345 5.54312 9.5152 5.57139C9.44696 5.59965 9.37381 5.6142 9.29994 5.6142H9.29966Z" fill="#525961"/>
</g>
<defs>
<clipPath id="clip0_3933_16987">
<rect width="24" height="24" fill="white" transform="translate(0 0.5)"/>
</clipPath>
</defs>
</svg>
