<svg width="24" height="25" viewBox="0 0 24 25" fill="none" xmlns="http://www.w3.org/2000/svg">
<path d="M9.95197 6.75C9.52211 6.74993 9.12024 6.74986 8.79192 6.79891C8.42102 6.85432 8.04 6.9853 7.73542 7.32371C7.44103 7.65082 7.3371 8.04061 7.29204 8.41294C7.24993 8.76096 7.24996 9.19238 7.25 9.67954L7.25 10.25C7.25 10.6642 7.58579 11 8 11C8.41421 11 8.75 10.6642 8.75 10.25V9.72222C8.75 9.17931 8.75129 8.84011 8.78118 8.59313C8.7952 8.47725 8.81273 8.41048 8.8269 8.37221C8.83885 8.33993 8.84739 8.33046 8.85023 8.32731L8.85104 8.32637C8.8524 8.32473 8.8534 8.32353 8.86242 8.3194C8.87904 8.3118 8.92168 8.29617 9.01354 8.28245C9.21765 8.25196 9.50511 8.25 10 8.25H11.25V16.75H9.5C9.08579 16.75 8.75 17.0858 8.75 17.5C8.75 17.9142 9.08579 18.25 9.5 18.25H15C15.4142 18.25 15.75 17.9142 15.75 17.5C15.75 17.0858 15.4142 16.75 15 16.75H12.75V8.25H14C14.4949 8.25 14.7824 8.25196 14.9865 8.28245C15.0783 8.29617 15.121 8.3118 15.1376 8.3194C15.1466 8.32353 15.1476 8.32473 15.149 8.32637L15.1496 8.32716C15.1525 8.33031 15.1611 8.33993 15.1731 8.37221C15.1873 8.41048 15.2048 8.47725 15.2188 8.59313C15.2487 8.84011 15.25 9.17931 15.25 9.72222V10.25C15.25 10.6642 15.5858 11 16 11C16.4142 11 16.75 10.6642 16.75 10.25L16.75 9.67953C16.75 9.19238 16.7501 8.76096 16.708 8.41294C16.6629 8.04061 16.559 7.65082 16.2646 7.32371C15.96 6.9853 15.579 6.85432 15.2081 6.79891C14.8798 6.74986 14.4779 6.74993 14.048 6.75H9.95197Z" fill="#5C646D"/>
<path fill-rule="evenodd" clip-rule="evenodd" d="M11.9426 1.75C9.63423 1.74999 7.82519 1.74998 6.41371 1.93975C4.96897 2.13399 3.82895 2.53933 2.93414 3.43414C2.03933 4.32895 1.63399 5.46897 1.43975 6.91371C1.24998 8.32519 1.24999 10.1342 1.25 12.4426V12.5574C1.24999 14.8658 1.24998 16.6748 1.43975 18.0863C1.63399 19.531 2.03933 20.6711 2.93414 21.5659C3.82895 22.4607 4.96897 22.866 6.41371 23.0603C7.82519 23.25 9.63423 23.25 11.9426 23.25H12.0574C14.3658 23.25 16.1748 23.25 17.5863 23.0603C19.031 22.866 20.1711 22.4607 21.0659 21.5659C21.9607 20.6711 22.366 19.531 22.5603 18.0863C22.75 16.6748 22.75 14.8658 22.75 12.5574V12.4426C22.75 10.1342 22.75 8.32519 22.5603 6.91371C22.366 5.46897 21.9607 4.32895 21.0659 3.43414C20.1711 2.53933 19.031 2.13399 17.5863 1.93975C16.1748 1.74998 14.3658 1.74999 12.0574 1.75H11.9426ZM3.9948 4.4948C4.56445 3.92514 5.33517 3.59825 6.61358 3.42637C7.91356 3.25159 9.62178 3.25 12 3.25C14.3782 3.25 16.0864 3.25159 17.3864 3.42637C18.6648 3.59825 19.4355 3.92514 20.0052 4.4948C20.5749 5.06445 20.9018 5.83517 21.0736 7.11358C21.2484 8.41356 21.25 10.1218 21.25 12.5C21.25 14.8782 21.2484 16.5864 21.0736 17.8864C20.9018 19.1648 20.5749 19.9355 20.0052 20.5052C19.4355 21.0749 18.6648 21.4018 17.3864 21.5736C16.0864 21.7484 14.3782 21.75 12 21.75C9.62178 21.75 7.91356 21.7484 6.61358 21.5736C5.33517 21.4018 4.56445 21.0749 3.9948 20.5052C3.42514 19.9355 3.09825 19.1648 2.92637 17.8864C2.75159 16.5864 2.75 14.8782 2.75 12.5C2.75 10.1218 2.75159 8.41356 2.92637 7.11358C3.09825 5.83517 3.42514 5.06445 3.9948 4.4948Z" fill="#5C646D"/>
</svg>
