<svg width="24" height="25" viewBox="0 0 24 25" fill="none" xmlns="http://www.w3.org/2000/svg">
<path fill-rule="evenodd" clip-rule="evenodd" d="M9.94358 1.75H14.0564C15.8942 1.74998 17.3498 1.74997 18.489 1.90314C19.6614 2.06076 20.6104 2.39288 21.3588 3.14124C22.1071 3.88961 22.4392 4.83856 22.5969 6.01098C22.75 7.15019 22.75 8.60583 22.75 10.4436V11.5549C22.75 12.2174 22.75 12.8176 22.7368 13.3591C22.7455 13.4047 22.75 13.4518 22.75 13.5C22.75 13.5641 22.7419 13.6264 22.7268 13.6858C22.7103 14.1299 22.682 14.5312 22.6335 14.8918C22.5125 15.7919 22.2536 16.5497 21.6517 17.1517C21.0497 17.7536 20.2919 18.0125 19.3918 18.1335C18.5248 18.25 17.4225 18.25 16.0549 18.25H12.75V21.75H16C16.4142 21.75 16.75 22.0858 16.75 22.5C16.75 22.9142 16.4142 23.25 16 23.25H8C7.58579 23.25 7.25 22.9142 7.25 22.5C7.25 22.0858 7.58579 21.75 8 21.75H11.25V18.25H7.94513C6.57754 18.25 5.47522 18.25 4.60825 18.1335C3.70814 18.0125 2.95027 17.7536 2.34835 17.1517C1.74643 16.5497 1.48754 15.7919 1.36652 14.8918C1.31805 14.5312 1.28974 14.1299 1.2732 13.6858C1.25805 13.6264 1.25 13.5641 1.25 13.5C1.25 13.4518 1.25454 13.4047 1.26323 13.359C1.24998 12.8176 1.24999 12.2174 1.25 11.5549L1.25 10.4436C1.24998 8.60582 1.24997 7.15019 1.40314 6.01098C1.56076 4.83856 1.89288 3.88961 2.64124 3.14124C3.38961 2.39288 4.33856 2.06076 5.51098 1.90314C6.65019 1.74997 8.10582 1.74998 9.94358 1.75ZM2.80673 14.25C2.81924 14.4063 2.83451 14.5533 2.85315 14.6919C2.9518 15.4257 3.13225 15.8142 3.40901 16.091C3.68577 16.3678 4.07435 16.5482 4.80812 16.6469C5.56347 16.7484 6.56458 16.75 8 16.75H16C17.4354 16.75 18.4365 16.7484 19.1919 16.6469C19.9257 16.5482 20.3142 16.3678 20.591 16.091C20.8678 15.8142 21.0482 15.4257 21.1469 14.6919C21.1655 14.5533 21.1808 14.4063 21.1933 14.25H2.80673ZM21.2463 12.75H2.75371C2.75016 12.3736 2.75 11.959 2.75 11.5V10.5C2.75 8.59318 2.75159 7.23851 2.88976 6.21085C3.02503 5.20476 3.27869 4.62511 3.7019 4.2019C4.12511 3.77869 4.70476 3.52502 5.71085 3.38976C6.73851 3.25159 8.09318 3.25 10 3.25H14C15.9068 3.25 17.2615 3.25159 18.2892 3.38976C19.2952 3.52502 19.8749 3.77869 20.2981 4.2019C20.7213 4.62511 20.975 5.20476 21.1102 6.21085C21.2484 7.23851 21.25 8.59318 21.25 10.5V11.5C21.25 11.959 21.2498 12.3736 21.2463 12.75Z" fill="#525961"/>
</svg>
