<svg width="82" height="112" viewBox="0 0 82 112" fill="none" xmlns="http://www.w3.org/2000/svg">
<rect x="6" y="75.5" width="70" height="8" fill="#ABCB20"/>
<rect x="6" y="75.5" width="70" height="8" fill="black" fill-opacity="0.2"/>
<g filter="url(#filter0_dd_64_2566)">
<rect x="6" y="47" width="70" height="57" rx="28.5" fill="#ABCB20"/>
</g>
<g clip-path="url(#clip0_64_2566)">
<mask id="mask0_64_2566" style="mask-type:luminance" maskUnits="userSpaceOnUse" x="26" y="61" width="30" height="29">
<path d="M56 61.5H26V89.5H56V61.5Z" fill="white"/>
</mask>
<g mask="url(#mask0_64_2566)">
<path d="M38.7521 62.9116C39.6598 61.0295 42.3402 61.0295 43.2479 62.9116L45.8539 68.3152C46.225 69.0847 46.9639 69.6109 47.8125 69.7099L53.7906 70.4076C55.9269 70.6569 56.7684 73.3114 55.1658 74.7459L50.8845 78.5785C50.224 79.1697 49.9267 80.067 50.1035 80.9357L51.2468 86.553C51.6684 88.624 49.4857 90.2487 47.6228 89.2506L42.1786 86.3339C41.4424 85.9395 40.5576 85.9395 39.8214 86.3339L34.3772 89.2506C32.5143 90.2487 30.3316 88.624 30.7532 86.553L31.8965 80.9357C32.0733 80.067 31.776 79.1697 31.1155 78.5785L26.8342 74.7459C25.2316 73.3114 26.0731 70.6569 28.2094 70.4076L34.1875 69.7099C35.0361 69.6109 35.775 69.0847 36.1461 68.3152L38.7521 62.9116Z" fill="white"/>
</g>
</g>
<rect x="1.37988" y="3.06006" width="79.24" height="43" rx="9" fill="white"/>
<rect x="1.37988" y="3.06006" width="79.24" height="43" rx="9" stroke="#E5E5E5" stroke-width="2"/>
<path d="M21.4262 22.8884C21.3836 22.4587 21.2007 22.1249 20.8775 21.887C20.5544 21.649 20.1158 21.5301 19.5619 21.5301C19.1854 21.5301 18.8676 21.5833 18.6084 21.6899C18.3491 21.7928 18.1503 21.9367 18.0118 22.1213C17.8768 22.306 17.8094 22.5155 17.8094 22.7499C17.8023 22.9452 17.8431 23.1156 17.9319 23.2612C18.0242 23.4068 18.1503 23.5329 18.3101 23.6394C18.4699 23.7424 18.6545 23.833 18.8641 23.9111C19.0736 23.9857 19.2973 24.0496 19.5352 24.1029L20.5153 24.3372C20.9912 24.4438 21.428 24.5858 21.8257 24.7634C22.2234 24.9409 22.5679 25.1593 22.8591 25.4186C23.1503 25.6778 23.3758 25.9832 23.5356 26.3347C23.6989 26.6863 23.7824 27.0894 23.7859 27.5439C23.7824 28.2115 23.6119 28.7904 23.2746 29.2804C22.9408 29.7669 22.4578 30.1451 21.8257 30.415C21.1972 30.6813 20.439 30.8145 19.5512 30.8145C18.6705 30.8145 17.9035 30.6796 17.2501 30.4097C16.6002 30.1398 16.0924 29.7403 15.7266 29.2112C15.3644 28.6785 15.1744 28.0198 15.1567 27.235H17.3886C17.4134 27.6007 17.5182 27.9061 17.7028 28.1512C17.891 28.3926 18.1414 28.5755 18.4539 28.6998C18.7699 28.8205 19.1268 28.8809 19.5246 28.8809C19.9152 28.8809 20.2543 28.8241 20.542 28.7105C20.8332 28.5968 21.0587 28.4388 21.2185 28.2364C21.3783 28.034 21.4582 27.8014 21.4582 27.5386C21.4582 27.2936 21.3854 27.0876 21.2398 26.9207C21.0977 26.7538 20.8882 26.6117 20.6112 26.4946C20.3378 26.3774 20.0022 26.2708 19.6045 26.1749L18.4166 25.8767C17.4969 25.6529 16.7707 25.3031 16.238 24.8273C15.7053 24.3514 15.4408 23.7105 15.4443 22.9044C15.4408 22.2438 15.6165 21.6668 15.9717 21.1732C16.3303 20.6796 16.8222 20.2943 17.4472 20.0173C18.0722 19.7403 18.7824 19.6018 19.5778 19.6018C20.3875 19.6018 21.0942 19.7403 21.6979 20.0173C22.3051 20.2943 22.7774 20.6796 23.1148 21.1732C23.4521 21.6668 23.6261 22.2385 23.6368 22.8884H21.4262ZM25.4318 21.6526V19.7509H34.3914V21.6526H31.0515V30.66H28.7717V21.6526H25.4318ZM36.9242 30.66H34.4526L38.2186 19.7509H41.1909L44.9515 30.66H42.4799L39.7473 22.2438H39.6621L36.9242 30.66ZM36.7697 26.372H42.6078V28.1725H36.7697V26.372ZM46.7746 30.66V19.7509H51.0785C51.9024 19.7509 52.6055 19.8983 53.1879 20.1931C53.7738 20.4843 54.2195 20.898 54.5249 21.4342C54.8339 21.9669 54.9883 22.5936 54.9883 23.3145C54.9883 24.0389 54.8321 24.6622 54.5196 25.1842C54.2071 25.7026 53.7543 26.1004 53.1613 26.3774C52.5718 26.6544 51.858 26.7928 51.0199 26.7928H48.1382V24.9392H50.6471C51.0874 24.9392 51.4532 24.8788 51.7444 24.758C52.0356 24.6373 52.2522 24.4562 52.3942 24.2147C52.5398 23.9732 52.6126 23.6732 52.6126 23.3145C52.6126 22.9523 52.5398 22.6469 52.3942 22.3983C52.2522 22.1497 52.0338 21.9615 51.739 21.8337C51.4479 21.7023 51.0803 21.6366 50.6364 21.6366H49.081V30.66H46.7746ZM52.6659 25.6955L55.3772 30.66H52.831L50.1783 25.6955H52.6659ZM56.7128 21.6526V19.7509H65.6723V21.6526H62.3325V30.66H60.0527V21.6526H56.7128Z" fill="#ABCB20"/>
<g clip-path="url(#clip1_64_2566)">
<rect x="40.99" y="54.0459" width="12.1421" height="12.1421" rx="1" transform="rotate(-135 40.99 54.0459)" fill="white" stroke="#E5E5E5" stroke-width="2"/>
</g>
<defs>
<filter id="filter0_dd_64_2566" x="6" y="47" width="70" height="65" filterUnits="userSpaceOnUse" color-interpolation-filters="sRGB">
<feFlood flood-opacity="0" result="BackgroundImageFix"/>
<feColorMatrix in="SourceAlpha" type="matrix" values="0 0 0 0 0 0 0 0 0 0 0 0 0 0 0 0 0 0 127 0" result="hardAlpha"/>
<feOffset dy="8"/>
<feComposite in2="hardAlpha" operator="out"/>
<feColorMatrix type="matrix" values="0 0 0 0 0.345098 0 0 0 0 0.8 0 0 0 0 0.00784314 0 0 0 1 0"/>
<feBlend mode="normal" in2="BackgroundImageFix" result="effect1_dropShadow_64_2566"/>
<feColorMatrix in="SourceAlpha" type="matrix" values="0 0 0 0 0 0 0 0 0 0 0 0 0 0 0 0 0 0 127 0" result="hardAlpha"/>
<feOffset dy="8"/>
<feComposite in2="hardAlpha" operator="out"/>
<feColorMatrix type="matrix" values="0 0 0 0 0 0 0 0 0 0 0 0 0 0 0 0 0 0 0.2 0"/>
<feBlend mode="normal" in2="effect1_dropShadow_64_2566" result="effect2_dropShadow_64_2566"/>
<feBlend mode="normal" in="SourceGraphic" in2="effect2_dropShadow_64_2566" result="shape"/>
</filter>
<clipPath id="clip0_64_2566">
<rect width="42" height="34" fill="white" transform="translate(20 58.5)"/>
</clipPath>
<clipPath id="clip1_64_2566">
<rect width="20" height="10" fill="white" transform="matrix(-1 0 0 -1 50.99 55.0601)"/>
</clipPath>
</defs>
</svg>
