<svg width="18" height="19" viewBox="0 0 18 19" fill="none" xmlns="http://www.w3.org/2000/svg">
<path d="M2.97771 8.88213L3.67059 11.4605H4.69022L5.97939 7.45312H4.93121L4.16651 10.0794L3.49602 7.45312H2.47255L1.78122 10.0794L1.03041 7.45312H0L1.26833 11.4605H2.30031L2.97771 8.88213Z" fill="#C3CDD6"/>
<path d="M9.50694 7.45312H8.48423L7.79211 10.0794L7.03822 7.45312H6.00781L7.27847 11.4605H8.3112L8.98939 8.88213L9.68381 11.4605H10.7019L11.9911 7.45312H10.9452L10.1766 10.0794L9.50694 7.45312Z" fill="#C3CDD6"/>
<path d="M16.9526 7.45312L16.1856 10.0794L15.5167 7.45312H14.4917L13.7996 10.0794L13.0495 7.45312H12.0176L13.289 11.4605H14.3202L14.9984 8.88213L15.6905 11.4605H16.7116L18.0008 7.45312H16.9526Z" fill="#C3CDD6"/>
<path d="M8.99868 1.78125C5.89889 1.78125 3.23247 3.61346 2.00586 6.24899H15.9923C14.7641 3.61346 12.0985 1.78125 8.99868 1.78125Z" fill="#C3CDD6"/>
<path d="M8.99909 17.2216C12.0996 17.2216 14.763 15.3902 15.9919 12.7539H2.00781C3.23442 15.3894 5.89934 17.2216 8.99909 17.2216Z" fill="#C3CDD6"/>
</svg>
