<svg width="16" height="13" viewBox="0 0 16 13" fill="none" xmlns="http://www.w3.org/2000/svg">
<path fill-rule="evenodd" clip-rule="evenodd" d="M1.37868 1.37868C0.5 2.25736 0.5 3.67157 0.5 6.5C0.5 9.32843 0.5 10.7426 1.37868 11.6213C2.25736 12.5 3.67157 12.5 6.5 12.5H9.5C12.3284 12.5 13.7426 12.5 14.6213 11.6213C15.5 10.7426 15.5 9.32843 15.5 6.5C15.5 3.67157 15.5 2.25736 14.6213 1.37868C13.7426 0.5 12.3284 0.5 9.5 0.5H6.5C3.67157 0.5 2.25736 0.5 1.37868 1.37868ZM12.9321 3.1399C13.131 3.37855 13.0988 3.73324 12.8601 3.93212L11.2127 5.30492C10.548 5.85892 10.0092 6.30794 9.53362 6.61379C9.03824 6.93239 8.55581 7.13366 8 7.13366C7.44419 7.13366 6.96176 6.93239 6.46638 6.61379C5.99084 6.30794 5.45203 5.85892 4.78727 5.30493L3.1399 3.93212C2.90124 3.73324 2.869 3.37855 3.06788 3.1399C3.26676 2.90124 3.62145 2.869 3.8601 3.06788L5.47928 4.41719C6.179 5.00028 6.6648 5.40381 7.07494 5.6676C7.47196 5.92294 7.7412 6.00866 8 6.00866C8.2588 6.00866 8.52804 5.92294 8.92506 5.6676C9.3352 5.40381 9.821 5.00028 10.5207 4.41718L12.1399 3.06788C12.3786 2.869 12.7332 2.90124 12.9321 3.1399Z" fill="#C3CDD6"/>
</svg>
